<?xml version="1.0" encoding="UTF-8"?>
<svg xmlns="http://www.w3.org/2000/svg" xmlns:xlink="http://www.w3.org/1999/xlink" width="20px" height="22px" viewBox="0 0 20 22" version="1.1">
<defs>
<filter id="alpha" filterUnits="objectBoundingBox" x="0%" y="0%" width="100%" height="100%">
  <feColorMatrix type="matrix" in="SourceGraphic" values="0 0 0 0 1 0 0 0 0 1 0 0 0 0 1 0 0 0 1 0"/>
</filter>
<mask id="mask0">
  <g filter="url(#alpha)">
<rect x="0" y="0" width="20" height="22" style="fill:rgb(0%,0%,0%);fill-opacity:0.992157;stroke:none;"/>
  </g>
</mask>
<clipPath id="clip1">
  <rect x="0" y="0" width="20" height="22"/>
</clipPath>
<g id="surface5" clip-path="url(#clip1)">
<path style=" stroke:none;fill-rule:evenodd;fill:rgb(19.607843%,25.490196%,30.980392%);fill-opacity:1;" d="M 7.046875 1.8125 C 6.953125 1.976562 6.894531 2.15625 6.875 2.355469 C 6.863281 5.761719 6.828125 9.15625 6.769531 12.539062 C 6.746094 12.539062 6.722656 12.539062 6.703125 12.539062 C 6.753906 9.179688 6.753906 5.839844 6.703125 2.527344 C 6.757812 2.335938 6.816406 2.144531 6.875 1.945312 C 6.925781 1.886719 6.980469 1.839844 7.046875 1.8125 Z M 7.046875 1.8125 "/>
</g>
<mask id="mask1">
  <g filter="url(#alpha)">
<rect x="0" y="0" width="20" height="22" style="fill:rgb(0%,0%,0%);fill-opacity:0.87451;stroke:none;"/>
  </g>
</mask>
<clipPath id="clip2">
  <rect x="0" y="0" width="20" height="22"/>
</clipPath>
<g id="surface8" clip-path="url(#clip2)">
<path style=" stroke:none;fill-rule:evenodd;fill:rgb(36.470588%,41.568627%,45.882353%);fill-opacity:1;" d="M 13.992188 1.8125 C 14.195312 1.984375 14.300781 2.214844 14.304688 2.492188 C 14.265625 5.828125 14.265625 9.152344 14.304688 12.46875 C 14.582031 12.515625 14.859375 12.558594 15.140625 12.605469 C 15.183594 13.699219 15.183594 14.792969 15.140625 15.886719 C 15.113281 15.921875 15.078125 15.945312 15.035156 15.953125 C 15.035156 14.835938 15.035156 13.722656 15.035156 12.605469 C 14.761719 12.625 14.496094 12.601562 14.234375 12.539062 C 14.214844 9.144531 14.191406 5.75 14.167969 2.355469 C 14.148438 2.15625 14.089844 1.976562 13.992188 1.8125 Z M 13.992188 1.8125 "/>
</g>
<mask id="mask2">
  <g filter="url(#alpha)">
<rect x="0" y="0" width="20" height="22" style="fill:rgb(0%,0%,0%);fill-opacity:0.984314;stroke:none;"/>
  </g>
</mask>
<clipPath id="clip3">
  <rect x="0" y="0" width="20" height="22"/>
</clipPath>
<g id="surface11" clip-path="url(#clip3)">
<path style=" stroke:none;fill-rule:evenodd;fill:rgb(36.078431%,40.784314%,45.490196%);fill-opacity:1;" d="M 6.703125 12.539062 C 6.722656 12.539062 6.746094 12.539062 6.769531 12.539062 C 6.53125 12.605469 6.277344 12.628906 6.007812 12.605469 C 6.007812 13.699219 6.007812 14.792969 6.007812 15.886719 C 6.5625 15.886719 7.117188 15.886719 7.671875 15.886719 C 7.085938 15.953125 6.484375 15.976562 5.867188 15.953125 C 5.851562 14.8125 5.875 13.675781 5.9375 12.539062 C 6.191406 12.539062 6.445312 12.539062 6.703125 12.539062 Z M 6.703125 12.539062 "/>
</g>
<mask id="mask3">
  <g filter="url(#alpha)">
<rect x="0" y="0" width="20" height="22" style="fill:rgb(0%,0%,0%);fill-opacity:0.372549;stroke:none;"/>
  </g>
</mask>
<clipPath id="clip4">
  <rect x="0" y="0" width="20" height="22"/>
</clipPath>
<g id="surface14" clip-path="url(#clip4)">
<path style=" stroke:none;fill-rule:evenodd;fill:rgb(55.294118%,61.176471%,70.980392%);fill-opacity:1;" d="M 15.730469 13.015625 C 15.660156 14.164062 15.636719 15.328125 15.660156 16.5 C 15.320312 16.523438 14.996094 16.5 14.6875 16.433594 C 14.988281 16.433594 15.289062 16.433594 15.589844 16.433594 C 15.566406 15.269531 15.589844 14.109375 15.660156 12.945312 C 15.703125 12.957031 15.726562 12.976562 15.730469 13.015625 Z M 15.730469 13.015625 "/>
</g>
<mask id="mask4">
  <g filter="url(#alpha)">
<rect x="0" y="0" width="20" height="22" style="fill:rgb(0%,0%,0%);fill-opacity:0.352941;stroke:none;"/>
  </g>
</mask>
<clipPath id="clip5">
  <rect x="0" y="0" width="20" height="22"/>
</clipPath>
<g id="surface17" clip-path="url(#clip5)">
<path style=" stroke:none;fill-rule:evenodd;fill:rgb(57.647059%,63.137255%,72.941176%);fill-opacity:1;" d="M 5.3125 13.015625 C 5.316406 12.976562 5.339844 12.957031 5.382812 12.945312 C 5.453125 14.109375 5.472656 15.269531 5.453125 16.433594 C 5.683594 16.433594 5.914062 16.433594 6.144531 16.433594 C 5.890625 16.523438 5.636719 16.523438 5.382812 16.433594 C 5.40625 15.28125 5.382812 14.140625 5.3125 13.015625 Z M 5.3125 13.015625 "/>
</g>
<mask id="mask5">
  <g filter="url(#alpha)">
<rect x="0" y="0" width="20" height="22" style="fill:rgb(0%,0%,0%);fill-opacity:0.741176;stroke:none;"/>
  </g>
</mask>
<clipPath id="clip6">
  <rect x="0" y="0" width="20" height="22"/>
</clipPath>
<g id="surface20" clip-path="url(#clip6)">
<path style=" stroke:none;fill-rule:evenodd;fill:rgb(44.313725%,50.588235%,63.529412%);fill-opacity:1;" d="M 16.144531 13.425781 C 16.246094 13.820312 16.292969 14.230469 16.285156 14.65625 C 16.25 15.464844 16.226562 16.285156 16.214844 17.113281 C 15.761719 17.136719 15.324219 17.113281 14.894531 17.046875 C 15.3125 17.046875 15.730469 17.046875 16.144531 17.046875 C 16.144531 15.839844 16.144531 14.632812 16.144531 13.425781 Z M 16.144531 13.425781 "/>
</g>
<mask id="mask6">
  <g filter="url(#alpha)">
<rect x="0" y="0" width="20" height="22" style="fill:rgb(0%,0%,0%);fill-opacity:0.827451;stroke:none;"/>
  </g>
</mask>
<clipPath id="clip7">
  <rect x="0" y="0" width="20" height="22"/>
</clipPath>
<g id="surface23" clip-path="url(#clip7)">
<path style=" stroke:none;fill-rule:evenodd;fill:rgb(32.54902%,40%,55.294118%);fill-opacity:1;" d="M 4.964844 13.355469 C 4.898438 14.582031 4.875 15.8125 4.894531 17.046875 C 5.3125 17.046875 5.730469 17.046875 6.144531 17.046875 C 5.71875 17.113281 5.28125 17.136719 4.828125 17.113281 C 4.800781 16.070312 4.777344 15.023438 4.757812 13.972656 C 4.808594 13.792969 4.84375 13.613281 4.859375 13.425781 C 4.886719 13.386719 4.921875 13.363281 4.964844 13.355469 Z M 4.964844 13.355469 "/>
</g>
<mask id="mask7">
  <g filter="url(#alpha)">
<rect x="0" y="0" width="20" height="22" style="fill:rgb(0%,0%,0%);fill-opacity:0.580392;stroke:none;"/>
  </g>
</mask>
<clipPath id="clip8">
  <rect x="0" y="0" width="20" height="22"/>
</clipPath>
<g id="surface26" clip-path="url(#clip8)">
<path style=" stroke:none;fill-rule:evenodd;fill:rgb(58.823529%,64.313725%,73.333333%);fill-opacity:1;" d="M 14.6875 16.433594 C 13.96875 16.433594 13.253906 16.433594 12.535156 16.433594 C 13.246094 16.300781 13.964844 16.300781 14.6875 16.433594 Z M 14.6875 16.433594 "/>
</g>
<mask id="mask8">
  <g filter="url(#alpha)">
<rect x="0" y="0" width="20" height="22" style="fill:rgb(0%,0%,0%);fill-opacity:0.960784;stroke:none;"/>
  </g>
</mask>
<clipPath id="clip9">
  <rect x="0" y="0" width="20" height="22"/>
</clipPath>
<g id="surface29" clip-path="url(#clip9)">
<path style=" stroke:none;fill-rule:evenodd;fill:rgb(35.686275%,41.568627%,56.862745%);fill-opacity:1;" d="M 11.910156 16.566406 C 11.769531 16.664062 11.609375 16.710938 11.421875 16.703125 C 11.5625 16.609375 11.726562 16.5625 11.910156 16.566406 Z M 11.910156 16.566406 "/>
</g>
<mask id="mask9">
  <g filter="url(#alpha)">
<rect x="0" y="0" width="20" height="22" style="fill:rgb(0%,0%,0%);fill-opacity:0.52549;stroke:none;"/>
  </g>
</mask>
<clipPath id="clip10">
  <rect x="0" y="0" width="20" height="22"/>
</clipPath>
<g id="surface32" clip-path="url(#clip10)">
<path style=" stroke:none;fill-rule:evenodd;fill:rgb(54.509804%,61.176471%,72.941176%);fill-opacity:1;" d="M 8.4375 17.523438 C 7.46875 17.464844 6.496094 17.441406 5.519531 17.457031 C 6.066406 17.410156 6.621094 17.363281 7.1875 17.320312 C 7.617188 17.359375 8.035156 17.425781 8.4375 17.523438 Z M 8.4375 17.523438 "/>
</g>
<mask id="mask10">
  <g filter="url(#alpha)">
<rect x="0" y="0" width="20" height="22" style="fill:rgb(0%,0%,0%);fill-opacity:0.901961;stroke:none;"/>
  </g>
</mask>
<clipPath id="clip11">
  <rect x="0" y="0" width="20" height="22"/>
</clipPath>
<g id="surface35" clip-path="url(#clip11)">
<path style=" stroke:none;fill-rule:evenodd;fill:rgb(40.784314%,47.843137%,63.921569%);fill-opacity:1;" d="M 12.535156 17.523438 C 12.394531 17.621094 12.234375 17.667969 12.046875 17.660156 C 12.1875 17.5625 12.351562 17.519531 12.535156 17.523438 Z M 12.535156 17.523438 "/>
</g>
<mask id="mask11">
  <g filter="url(#alpha)">
<rect x="0" y="0" width="20" height="22" style="fill:rgb(0%,0%,0%);fill-opacity:0.192157;stroke:none;"/>
  </g>
</mask>
<clipPath id="clip12">
  <rect x="0" y="0" width="20" height="22"/>
</clipPath>
<g id="surface38" clip-path="url(#clip12)">
<path style=" stroke:none;fill-rule:evenodd;fill:rgb(55.294118%,61.568627%,73.333333%);fill-opacity:1;" d="M 15.9375 17.457031 C 15.988281 17.449219 16.035156 17.457031 16.078125 17.492188 C 16.03125 17.59375 15.960938 17.675781 15.867188 17.730469 C 15.890625 17.640625 15.914062 17.546875 15.9375 17.457031 Z M 15.9375 17.457031 "/>
</g>
<mask id="mask12">
  <g filter="url(#alpha)">
<rect x="0" y="0" width="20" height="22" style="fill:rgb(0%,0%,0%);fill-opacity:0.576471;stroke:none;"/>
  </g>
</mask>
<clipPath id="clip13">
  <rect x="0" y="0" width="20" height="22"/>
</clipPath>
<g id="surface41" clip-path="url(#clip13)">
<path style=" stroke:none;fill-rule:evenodd;fill:rgb(47.058824%,54.509804%,68.627451%);fill-opacity:1;" d="M 11.703125 17.867188 C 11.632812 17.980469 11.539062 18.070312 11.421875 18.140625 C 11.445312 17.980469 11.539062 17.890625 11.703125 17.867188 Z M 11.703125 17.867188 "/>
</g>
<mask id="mask13">
  <g filter="url(#alpha)">
<rect x="0" y="0" width="20" height="22" style="fill:rgb(0%,0%,0%);fill-opacity:0.580392;stroke:none;"/>
  </g>
</mask>
<clipPath id="clip14">
  <rect x="0" y="0" width="20" height="22"/>
</clipPath>
<g id="surface44" clip-path="url(#clip14)">
<path style=" stroke:none;fill-rule:evenodd;fill:rgb(38.823529%,46.666667%,62.745098%);fill-opacity:1;" d="M 9.617188 18.207031 C 9.855469 18.46875 9.785156 18.582031 9.410156 18.550781 C 8.957031 18.519531 8.519531 18.472656 8.089844 18.414062 C 8.601562 18.40625 9.109375 18.429688 9.617188 18.480469 C 9.617188 18.390625 9.617188 18.300781 9.617188 18.207031 Z M 9.617188 18.207031 "/>
</g>
<mask id="mask14">
  <g filter="url(#alpha)">
<rect x="0" y="0" width="20" height="22" style="fill:rgb(0%,0%,0%);fill-opacity:0.568627;stroke:none;"/>
  </g>
</mask>
<clipPath id="clip15">
  <rect x="0" y="0" width="20" height="22"/>
</clipPath>
<g id="surface47" clip-path="url(#clip15)">
<path style=" stroke:none;fill-rule:evenodd;fill:rgb(50.196078%,57.254902%,70.588235%);fill-opacity:1;" d="M 11.355469 18.34375 C 11.527344 18.472656 11.734375 18.519531 11.980469 18.480469 C 11.761719 18.546875 11.53125 18.570312 11.285156 18.550781 C 11.269531 18.460938 11.292969 18.394531 11.355469 18.34375 Z M 11.355469 18.34375 "/>
</g>
<mask id="mask15">
  <g filter="url(#alpha)">
<rect x="0" y="0" width="20" height="22" style="fill:rgb(0%,0%,0%);fill-opacity:0.937255;stroke:none;"/>
  </g>
</mask>
<clipPath id="clip16">
  <rect x="0" y="0" width="20" height="22"/>
</clipPath>
<g id="surface50" clip-path="url(#clip16)">
<path style=" stroke:none;fill-rule:evenodd;fill:rgb(28.627451%,35.686275%,51.372549%);fill-opacity:1;" d="M 10.9375 18.003906 C 10.878906 18.207031 10.835938 18.410156 10.796875 18.617188 C 10.59375 18.71875 10.40625 18.699219 10.242188 18.550781 C 10.40625 18.550781 10.566406 18.550781 10.730469 18.550781 C 10.71875 18.328125 10.789062 18.148438 10.9375 18.003906 Z M 10.9375 18.003906 "/>
</g>
<mask id="mask16">
  <g filter="url(#alpha)">
<rect x="0" y="0" width="20" height="22" style="fill:rgb(0%,0%,0%);fill-opacity:0.533333;stroke:none;"/>
  </g>
</mask>
<clipPath id="clip17">
  <rect x="0" y="0" width="20" height="22"/>
</clipPath>
<g id="surface53" clip-path="url(#clip17)">
<path style=" stroke:none;fill-rule:evenodd;fill:rgb(42.352941%,49.411765%,62.352941%);fill-opacity:1;" d="M 3.578125 20.1875 C 3.605469 19.992188 3.5625 19.824219 3.4375 19.675781 C 3.167969 19.585938 2.890625 19.550781 2.605469 19.574219 C 2.605469 20.03125 2.605469 20.484375 2.605469 20.941406 C 2.535156 20.476562 2.511719 19.996094 2.535156 19.507812 C 2.835938 19.496094 3.136719 19.507812 3.4375 19.539062 C 3.714844 19.726562 3.761719 19.945312 3.578125 20.1875 Z M 3.296875 19.847656 C 3.304688 19.949219 3.28125 20.039062 3.230469 20.121094 C 2.988281 20.171875 2.875 20.082031 2.882812 19.847656 C 3.019531 19.847656 3.160156 19.847656 3.296875 19.847656 Z M 3.296875 19.847656 "/>
</g>
<mask id="mask17">
  <g filter="url(#alpha)">
<rect x="0" y="0" width="20" height="22" style="fill:rgb(0%,0%,0%);fill-opacity:0.729412;stroke:none;"/>
  </g>
</mask>
<clipPath id="clip18">
  <rect x="0" y="0" width="20" height="22"/>
</clipPath>
<g id="surface56" clip-path="url(#clip18)">
<path style=" stroke:none;fill-rule:evenodd;fill:rgb(36.470588%,43.137255%,57.254902%);fill-opacity:1;" d="M 3.992188 19.4375 C 4.0625 19.433594 4.121094 19.453125 4.167969 19.507812 C 4.214844 19.960938 4.214844 20.417969 4.167969 20.871094 C 4.121094 21.023438 4.039062 21.046875 3.921875 20.941406 C 3.816406 20.421875 3.835938 19.921875 3.992188 19.4375 Z M 3.992188 19.4375 "/>
</g>
<mask id="mask18">
  <g filter="url(#alpha)">
<rect x="0" y="0" width="20" height="22" style="fill:rgb(0%,0%,0%);fill-opacity:0.329412;stroke:none;"/>
  </g>
</mask>
<clipPath id="clip19">
  <rect x="0" y="0" width="20" height="22"/>
</clipPath>
<g id="surface59" clip-path="url(#clip19)">
<path style=" stroke:none;fill-rule:evenodd;fill:rgb(49.803922%,56.470588%,67.45098%);fill-opacity:1;" d="M 9.828125 19.644531 C 9.527344 19.589844 9.226562 19.566406 8.921875 19.574219 C 8.921875 20.03125 8.921875 20.484375 8.921875 20.941406 C 8.855469 20.476562 8.832031 19.996094 8.855469 19.507812 C 9.15625 19.496094 9.457031 19.507812 9.757812 19.539062 C 9.796875 19.566406 9.820312 19.601562 9.828125 19.644531 Z M 9.828125 19.644531 "/>
</g>
<mask id="mask19">
  <g filter="url(#alpha)">
<rect x="0" y="0" width="20" height="22" style="fill:rgb(0%,0%,0%);fill-opacity:0.145098;stroke:none;"/>
  </g>
</mask>
<clipPath id="clip20">
  <rect x="0" y="0" width="20" height="22"/>
</clipPath>
<g id="surface62" clip-path="url(#clip20)">
<path style=" stroke:none;fill-rule:evenodd;fill:rgb(65.490196%,70.196078%,78.039216%);fill-opacity:1;" d="M 18.507812 19.574219 C 18.484375 19.574219 18.460938 19.574219 18.4375 19.574219 C 18.390625 19.574219 18.34375 19.574219 18.296875 19.574219 C 18.230469 19.996094 18.207031 20.425781 18.230469 20.871094 C 18.136719 20.429688 18.136719 19.972656 18.230469 19.507812 C 18.355469 19.410156 18.445312 19.429688 18.507812 19.574219 Z M 18.507812 19.574219 "/>
</g>
<mask id="mask20">
  <g filter="url(#alpha)">
<rect x="0" y="0" width="20" height="22" style="fill:rgb(0%,0%,0%);fill-opacity:0.807843;stroke:none;"/>
  </g>
</mask>
<clipPath id="clip21">
  <rect x="0" y="0" width="20" height="22"/>
</clipPath>
<g id="surface65" clip-path="url(#clip21)">
<path style=" stroke:none;fill-rule:evenodd;fill:rgb(30.588235%,38.431373%,53.72549%);fill-opacity:1;" d="M 18.296875 19.574219 C 18.34375 21.304688 18.390625 21.304688 18.4375 19.574219 C 18.460938 19.574219 18.484375 19.574219 18.507812 19.574219 C 18.550781 19.601562 18.574219 19.648438 18.578125 19.710938 C 18.523438 20.117188 18.488281 20.527344 18.472656 20.941406 C 18.351562 21.042969 18.269531 21.019531 18.230469 20.871094 C 18.207031 20.425781 18.230469 19.996094 18.296875 19.574219 Z M 18.296875 19.574219 "/>
</g>
<mask id="mask21">
  <g filter="url(#alpha)">
<rect x="0" y="0" width="20" height="22" style="fill:rgb(0%,0%,0%);fill-opacity:0.596078;stroke:none;"/>
  </g>
</mask>
<clipPath id="clip22">
  <rect x="0" y="0" width="20" height="22"/>
</clipPath>
<g id="surface68" clip-path="url(#clip22)">
<path style=" stroke:none;fill-rule:evenodd;fill:rgb(48.627451%,54.901961%,66.666667%);fill-opacity:1;" d="M 8.644531 20.121094 C 8.644531 20.054688 8.644531 19.984375 8.644531 19.917969 C 8.476562 19.921875 8.351562 19.851562 8.265625 19.710938 C 8.195312 19.75 8.136719 19.792969 8.089844 19.847656 C 8.082031 19.613281 8.199219 19.523438 8.4375 19.574219 C 8.414062 19.78125 8.507812 19.871094 8.714844 19.847656 C 8.734375 19.957031 8.710938 20.046875 8.644531 20.121094 Z M 8.644531 20.121094 "/>
</g>
<mask id="mask22">
  <g filter="url(#alpha)">
<rect x="0" y="0" width="20" height="22" style="fill:rgb(0%,0%,0%);fill-opacity:0.435294;stroke:none;"/>
  </g>
</mask>
<clipPath id="clip23">
  <rect x="0" y="0" width="20" height="22"/>
</clipPath>
<g id="surface71" clip-path="url(#clip23)">
<path style=" stroke:none;fill-rule:evenodd;fill:rgb(51.372549%,57.647059%,68.627451%);fill-opacity:1;" d="M 3.296875 19.847656 C 3.160156 19.847656 3.019531 19.847656 2.882812 19.847656 C 2.875 20.082031 2.988281 20.171875 3.230469 20.121094 C 3.105469 20.1875 2.96875 20.210938 2.8125 20.1875 C 2.8125 20.054688 2.8125 19.917969 2.8125 19.78125 C 2.988281 19.757812 3.152344 19.78125 3.296875 19.847656 Z M 3.296875 19.847656 "/>
</g>
<mask id="mask23">
  <g filter="url(#alpha)">
<rect x="0" y="0" width="20" height="22" style="fill:rgb(0%,0%,0%);fill-opacity:0.576471;stroke:none;"/>
  </g>
</mask>
<clipPath id="clip24">
  <rect x="0" y="0" width="20" height="22"/>
</clipPath>
<g id="surface74" clip-path="url(#clip24)">
<path style=" stroke:none;fill-rule:evenodd;fill:rgb(45.882353%,52.54902%,64.705882%);fill-opacity:1;" d="M 9.617188 19.847656 C 9.480469 19.847656 9.339844 19.847656 9.203125 19.847656 C 9.203125 19.9375 9.203125 20.03125 9.203125 20.121094 C 9.136719 20.023438 9.113281 19.910156 9.132812 19.78125 C 9.308594 19.757812 9.472656 19.78125 9.617188 19.847656 Z M 9.617188 19.847656 "/>
</g>
<mask id="mask24">
  <g filter="url(#alpha)">
<rect x="0" y="0" width="20" height="22" style="fill:rgb(0%,0%,0%);fill-opacity:0.960784;stroke:none;"/>
  </g>
</mask>
<clipPath id="clip25">
  <rect x="0" y="0" width="20" height="22"/>
</clipPath>
<g id="surface77" clip-path="url(#clip25)">
<path style=" stroke:none;fill-rule:evenodd;fill:rgb(34.117647%,40.784314%,56.078431%);fill-opacity:1;" d="M 6.492188 20.054688 C 6.242188 20.007812 5.984375 19.960938 5.730469 19.917969 C 5.636719 20.234375 5.636719 20.554688 5.730469 20.871094 C 5.777344 20.636719 5.820312 20.40625 5.867188 20.1875 C 5.867188 20.304688 5.867188 20.417969 5.867188 20.53125 C 5.878906 20.667969 5.867188 20.804688 5.832031 20.941406 C 5.722656 21.023438 5.628906 21.003906 5.554688 20.871094 C 5.5 20.535156 5.511719 20.207031 5.589844 19.882812 C 5.835938 19.878906 6.089844 19.878906 6.355469 19.882812 C 6.441406 19.910156 6.488281 19.96875 6.492188 20.054688 Z M 6.492188 20.054688 "/>
</g>
<mask id="mask25">
  <g filter="url(#alpha)">
<rect x="0" y="0" width="20" height="22" style="fill:rgb(0%,0%,0%);fill-opacity:0.478431;stroke:none;"/>
  </g>
</mask>
<clipPath id="clip26">
  <rect x="0" y="0" width="20" height="22"/>
</clipPath>
<g id="surface80" clip-path="url(#clip26)">
<path style=" stroke:none;fill-rule:evenodd;fill:rgb(41.176471%,48.235294%,61.176471%);fill-opacity:1;" d="M 10.453125 19.917969 C 10.382812 19.917969 10.3125 19.917969 10.242188 19.917969 C 10.242188 20.234375 10.242188 20.554688 10.242188 20.871094 C 10.3125 20.871094 10.382812 20.871094 10.453125 20.871094 C 10.378906 20.972656 10.300781 20.996094 10.207031 20.941406 C 10.160156 20.578125 10.160156 20.210938 10.207031 19.847656 C 10.316406 19.757812 10.398438 19.78125 10.453125 19.917969 Z M 10.453125 19.917969 "/>
</g>
<mask id="mask26">
  <g filter="url(#alpha)">
<rect x="0" y="0" width="20" height="22" style="fill:rgb(0%,0%,0%);fill-opacity:0.447059;stroke:none;"/>
  </g>
</mask>
<clipPath id="clip27">
  <rect x="0" y="0" width="20" height="22"/>
</clipPath>
<g id="surface83" clip-path="url(#clip27)">
<path style=" stroke:none;fill-rule:evenodd;fill:rgb(44.705882%,51.372549%,63.921569%);fill-opacity:1;" d="M 12.046875 20.1875 C 11.757812 19.890625 11.433594 19.847656 11.078125 20.054688 C 11.109375 19.988281 11.152344 19.929688 11.214844 19.882812 C 11.402344 19.835938 11.585938 19.835938 11.769531 19.882812 C 11.925781 19.933594 12.019531 20.035156 12.046875 20.1875 Z M 12.046875 20.1875 "/>
</g>
<mask id="mask27">
  <g filter="url(#alpha)">
<rect x="0" y="0" width="20" height="22" style="fill:rgb(0%,0%,0%);fill-opacity:0.560784;stroke:none;"/>
  </g>
</mask>
<clipPath id="clip28">
  <rect x="0" y="0" width="20" height="22"/>
</clipPath>
<g id="surface86" clip-path="url(#clip28)">
<path style=" stroke:none;fill-rule:evenodd;fill:rgb(47.058824%,53.333333%,65.490196%);fill-opacity:1;" d="M 14.0625 20.871094 C 14.0625 20.554688 14.0625 20.234375 14.0625 19.917969 C 13.992188 19.917969 13.921875 19.917969 13.855469 19.917969 C 13.855469 20.257812 13.855469 20.597656 13.855469 20.941406 C 13.785156 20.476562 13.761719 19.996094 13.785156 19.507812 C 13.902344 19.507812 14.015625 19.507812 14.132812 19.507812 C 14.140625 19.964844 14.117188 20.417969 14.0625 20.871094 Z M 14.0625 20.871094 "/>
</g>
<mask id="mask28">
  <g filter="url(#alpha)">
<rect x="0" y="0" width="20" height="22" style="fill:rgb(0%,0%,0%);fill-opacity:0.105882;stroke:none;"/>
  </g>
</mask>
<clipPath id="clip29">
  <rect x="0" y="0" width="20" height="22"/>
</clipPath>
<g id="surface89" clip-path="url(#clip29)">
<path style=" stroke:none;fill-rule:evenodd;fill:rgb(60.392157%,65.490196%,74.509804%);fill-opacity:1;" d="M 14.546875 19.917969 C 14.847656 19.886719 15.148438 19.863281 15.453125 19.847656 C 15.472656 20.226562 15.449219 20.589844 15.382812 20.941406 C 15.402344 20.585938 15.382812 20.246094 15.3125 19.917969 C 15.242188 19.90625 15.199219 19.925781 15.171875 19.984375 C 14.96875 19.9375 14.761719 19.917969 14.546875 19.917969 Z M 14.546875 19.917969 "/>
</g>
<mask id="mask29">
  <g filter="url(#alpha)">
<rect x="0" y="0" width="20" height="22" style="fill:rgb(0%,0%,0%);fill-opacity:0.768627;stroke:none;"/>
  </g>
</mask>
<clipPath id="clip30">
  <rect x="0" y="0" width="20" height="22"/>
</clipPath>
<g id="surface92" clip-path="url(#clip30)">
<path style=" stroke:none;fill-rule:evenodd;fill:rgb(32.54902%,39.607843%,55.294118%);fill-opacity:1;" d="M 15.589844 19.507812 C 15.707031 19.507812 15.820312 19.507812 15.9375 19.507812 C 15.9375 19.984375 15.9375 20.460938 15.9375 20.941406 C 15.84375 20.941406 15.753906 20.941406 15.660156 20.941406 C 15.609375 20.441406 15.589844 19.960938 15.589844 19.507812 Z M 15.589844 19.507812 "/>
</g>
<mask id="mask30">
  <g filter="url(#alpha)">
<rect x="0" y="0" width="20" height="22" style="fill:rgb(0%,0%,0%);fill-opacity:0.462745;stroke:none;"/>
  </g>
</mask>
<clipPath id="clip31">
  <rect x="0" y="0" width="20" height="22"/>
</clipPath>
<g id="surface95" clip-path="url(#clip31)">
<path style=" stroke:none;fill-rule:evenodd;fill:rgb(42.745098%,49.803922%,62.352941%);fill-opacity:1;" d="M 16.5625 19.78125 C 16.644531 19.828125 16.738281 19.851562 16.839844 19.847656 C 16.839844 19.9375 16.839844 20.03125 16.839844 20.121094 C 16.738281 20.117188 16.644531 20.140625 16.5625 20.1875 C 16.597656 20.097656 16.667969 20.027344 16.769531 19.984375 C 16.667969 19.941406 16.597656 19.871094 16.5625 19.78125 Z M 16.5625 19.78125 "/>
</g>
<mask id="mask31">
  <g filter="url(#alpha)">
<rect x="0" y="0" width="20" height="22" style="fill:rgb(0%,0%,0%);fill-opacity:0.447059;stroke:none;"/>
  </g>
</mask>
<clipPath id="clip32">
  <rect x="0" y="0" width="20" height="22"/>
</clipPath>
<g id="surface98" clip-path="url(#clip32)">
<path style=" stroke:none;fill-rule:evenodd;fill:rgb(52.156863%,58.431373%,69.019608%);fill-opacity:1;" d="M 4.617188 19.917969 C 4.574219 19.984375 4.527344 20.050781 4.480469 20.121094 C 4.535156 20.183594 4.605469 20.203125 4.6875 20.1875 C 4.582031 20.285156 4.605469 20.332031 4.757812 20.324219 C 4.707031 20.386719 4.636719 20.410156 4.546875 20.394531 C 4.507812 20.304688 4.460938 20.214844 4.410156 20.121094 C 4.410156 19.984375 4.480469 19.914062 4.617188 19.917969 Z M 4.617188 19.917969 "/>
</g>
<mask id="mask32">
  <g filter="url(#alpha)">
<rect x="0" y="0" width="20" height="22" style="fill:rgb(0%,0%,0%);fill-opacity:0.411765;stroke:none;"/>
  </g>
</mask>
<clipPath id="clip33">
  <rect x="0" y="0" width="20" height="22"/>
</clipPath>
<g id="surface101" clip-path="url(#clip33)">
<path style=" stroke:none;fill-rule:evenodd;fill:rgb(57.647059%,63.529412%,72.941176%);fill-opacity:1;" d="M 14.546875 19.917969 C 14.503906 20.007812 14.433594 20.074219 14.339844 20.121094 C 14.339844 19.984375 14.410156 19.917969 14.546875 19.917969 Z M 14.546875 19.917969 "/>
</g>
<mask id="mask33">
  <g filter="url(#alpha)">
<rect x="0" y="0" width="20" height="22" style="fill:rgb(0%,0%,0%);fill-opacity:0.419608;stroke:none;"/>
  </g>
</mask>
<clipPath id="clip34">
  <rect x="0" y="0" width="20" height="22"/>
</clipPath>
<g id="surface104" clip-path="url(#clip34)">
<path style=" stroke:none;fill-rule:evenodd;fill:rgb(50.980392%,57.647059%,68.235294%);fill-opacity:1;" d="M 17.257812 19.917969 C 17.210938 19.984375 17.167969 20.050781 17.117188 20.121094 C 17.175781 20.183594 17.246094 20.203125 17.328125 20.1875 C 17.253906 20.253906 17.160156 20.277344 17.046875 20.257812 C 17.007812 20.066406 17.078125 19.953125 17.257812 19.917969 Z M 17.257812 19.917969 "/>
</g>
<mask id="mask34">
  <g filter="url(#alpha)">
<rect x="0" y="0" width="20" height="22" style="fill:rgb(0%,0%,0%);fill-opacity:0.109804;stroke:none;"/>
  </g>
</mask>
<clipPath id="clip35">
  <rect x="0" y="0" width="20" height="22"/>
</clipPath>
<g id="surface107" clip-path="url(#clip35)">
<path style=" stroke:none;fill-rule:evenodd;fill:rgb(61.568627%,67.058824%,75.686275%);fill-opacity:1;" d="M 4.6875 20.1875 C 4.761719 20.125 4.855469 20.101562 4.964844 20.121094 C 5.027344 20.167969 5.050781 20.238281 5.035156 20.324219 C 4.964844 20.324219 4.894531 20.324219 4.828125 20.324219 C 4.855469 20.277344 4.902344 20.242188 4.964844 20.222656 C 4.875 20.191406 4.78125 20.179688 4.6875 20.1875 Z M 4.6875 20.1875 "/>
</g>
<mask id="mask35">
  <g filter="url(#alpha)">
<rect x="0" y="0" width="20" height="22" style="fill:rgb(0%,0%,0%);fill-opacity:0.427451;stroke:none;"/>
  </g>
</mask>
<clipPath id="clip36">
  <rect x="0" y="0" width="20" height="22"/>
</clipPath>
<g id="surface110" clip-path="url(#clip36)">
<path style=" stroke:none;fill-rule:evenodd;fill:rgb(44.313725%,51.372549%,63.529412%);fill-opacity:1;" d="M 9.6875 19.984375 C 9.695312 20.050781 9.671875 20.109375 9.617188 20.15625 C 9.464844 20.210938 9.324219 20.199219 9.203125 20.121094 C 9.386719 20.144531 9.550781 20.097656 9.6875 19.984375 Z M 9.6875 19.984375 "/>
</g>
<mask id="mask36">
  <g filter="url(#alpha)">
<rect x="0" y="0" width="20" height="22" style="fill:rgb(0%,0%,0%);fill-opacity:0.109804;stroke:none;"/>
  </g>
</mask>
<clipPath id="clip37">
  <rect x="0" y="0" width="20" height="22"/>
</clipPath>
<g id="surface113" clip-path="url(#clip37)">
<path style=" stroke:none;fill-rule:evenodd;fill:rgb(59.607843%,64.705882%,74.117647%);fill-opacity:1;" d="M 10.796875 19.917969 C 10.875 19.96875 10.882812 20.035156 10.832031 20.121094 C 10.730469 20.171875 10.628906 20.21875 10.519531 20.257812 C 10.613281 20.144531 10.707031 20.03125 10.796875 19.917969 Z M 10.796875 19.917969 "/>
</g>
<mask id="mask37">
  <g filter="url(#alpha)">
<rect x="0" y="0" width="20" height="22" style="fill:rgb(0%,0%,0%);fill-opacity:0.054902;stroke:none;"/>
  </g>
</mask>
<clipPath id="clip38">
  <rect x="0" y="0" width="20" height="22"/>
</clipPath>
<g id="surface116" clip-path="url(#clip38)">
<path style=" stroke:none;fill-rule:evenodd;fill:rgb(60.784314%,65.882353%,74.901961%);fill-opacity:1;" d="M 11.703125 20.1875 C 11.554688 20.175781 11.414062 20.199219 11.285156 20.257812 C 11.316406 20.175781 11.386719 20.128906 11.492188 20.121094 C 11.578125 20.121094 11.648438 20.144531 11.703125 20.1875 Z M 11.703125 20.1875 "/>
</g>
<mask id="mask38">
  <g filter="url(#alpha)">
<rect x="0" y="0" width="20" height="22" style="fill:rgb(0%,0%,0%);fill-opacity:0.215686;stroke:none;"/>
  </g>
</mask>
<clipPath id="clip39">
  <rect x="0" y="0" width="20" height="22"/>
</clipPath>
<g id="surface119" clip-path="url(#clip39)">
<path style=" stroke:none;fill-rule:evenodd;fill:rgb(60.392157%,65.882353%,74.901961%);fill-opacity:1;" d="M 17.328125 20.1875 C 17.425781 20.125 17.539062 20.101562 17.671875 20.121094 C 17.671875 20.1875 17.671875 20.257812 17.671875 20.324219 C 17.605469 20.324219 17.535156 20.324219 17.464844 20.324219 C 17.496094 20.277344 17.539062 20.242188 17.605469 20.222656 C 17.515625 20.191406 17.421875 20.179688 17.328125 20.1875 Z M 17.328125 20.1875 "/>
</g>
<mask id="mask39">
  <g filter="url(#alpha)">
<rect x="0" y="0" width="20" height="22" style="fill:rgb(0%,0%,0%);fill-opacity:0.560784;stroke:none;"/>
  </g>
</mask>
<clipPath id="clip40">
  <rect x="0" y="0" width="20" height="22"/>
</clipPath>
<g id="surface122" clip-path="url(#clip40)">
<path style=" stroke:none;fill-rule:evenodd;fill:rgb(41.176471%,48.235294%,61.568627%);fill-opacity:1;" d="M 8.644531 20.121094 C 8.597656 20.183594 8.527344 20.207031 8.4375 20.1875 C 8.4375 20.324219 8.4375 20.460938 8.4375 20.597656 C 8.4375 20.460938 8.4375 20.324219 8.4375 20.1875 C 8.527344 20.207031 8.597656 20.183594 8.644531 20.121094 Z M 8.644531 20.121094 "/>
</g>
<mask id="mask40">
  <g filter="url(#alpha)">
<rect x="0" y="0" width="20" height="22" style="fill:rgb(0%,0%,0%);fill-opacity:0.788235;stroke:none;"/>
  </g>
</mask>
<clipPath id="clip41">
  <rect x="0" y="0" width="20" height="22"/>
</clipPath>
<g id="surface125" clip-path="url(#clip41)">
<path style=" stroke:none;fill-rule:evenodd;fill:rgb(38.039216%,45.098039%,58.823529%);fill-opacity:1;" d="M 16.285156 19.710938 C 16.285156 19.824219 16.238281 19.914062 16.144531 19.984375 C 16.199219 20.039062 16.253906 20.082031 16.320312 20.121094 C 16.355469 20.347656 16.367188 20.574219 16.355469 20.804688 C 16.234375 20.625 16.210938 20.429688 16.285156 20.222656 C 16.011719 20.058594 16.011719 19.886719 16.285156 19.710938 Z M 16.285156 19.710938 "/>
</g>
<mask id="mask41">
  <g filter="url(#alpha)">
<rect x="0" y="0" width="20" height="22" style="fill:rgb(0%,0%,0%);fill-opacity:0.968627;stroke:none;"/>
  </g>
</mask>
<clipPath id="clip42">
  <rect x="0" y="0" width="20" height="22"/>
</clipPath>
<g id="surface128" clip-path="url(#clip42)">
<path style=" stroke:none;fill-rule:evenodd;fill:rgb(40%,46.27451%,60.392157%);fill-opacity:1;" d="M 5.105469 19.984375 C 5.105469 19.960938 5.105469 19.9375 5.105469 19.917969 C 5.238281 19.921875 5.316406 19.988281 5.347656 20.121094 C 5.394531 20.394531 5.394531 20.667969 5.347656 20.941406 C 5.144531 20.945312 4.933594 20.96875 4.722656 21.007812 C 4.621094 20.988281 4.539062 20.941406 4.480469 20.871094 C 4.734375 20.871094 4.988281 20.871094 5.242188 20.871094 C 5.253906 20.597656 5.242188 20.324219 5.207031 20.054688 C 5.183594 20.015625 5.148438 19.992188 5.105469 19.984375 Z M 5.105469 19.984375 "/>
</g>
<mask id="mask42">
  <g filter="url(#alpha)">
<rect x="0" y="0" width="20" height="22" style="fill:rgb(0%,0%,0%);fill-opacity:0.968627;stroke:none;"/>
  </g>
</mask>
<clipPath id="clip43">
  <rect x="0" y="0" width="20" height="22"/>
</clipPath>
<g id="surface131" clip-path="url(#clip43)">
<path style=" stroke:none;fill-rule:evenodd;fill:rgb(38.039216%,44.705882%,58.823529%);fill-opacity:1;" d="M 17.257812 19.917969 C 17.804688 19.742188 18.0625 19.949219 18.019531 20.53125 C 17.996094 20.667969 17.972656 20.804688 17.953125 20.941406 C 17.90625 20.964844 17.859375 20.988281 17.8125 21.007812 C 17.570312 20.96875 17.339844 20.921875 17.117188 20.871094 C 17.371094 20.871094 17.628906 20.871094 17.882812 20.871094 C 17.894531 20.597656 17.882812 20.324219 17.847656 20.054688 C 17.667969 19.9375 17.472656 19.890625 17.257812 19.917969 Z M 17.257812 19.917969 "/>
</g>
<mask id="mask43">
  <g filter="url(#alpha)">
<rect x="0" y="0" width="20" height="22" style="fill:rgb(0%,0%,0%);fill-opacity:0.00784314;stroke:none;"/>
  </g>
</mask>
<clipPath id="clip44">
  <rect x="0" y="0" width="20" height="22"/>
</clipPath>
<g id="surface134" clip-path="url(#clip44)">
<path style=" stroke:none;fill-rule:evenodd;fill:rgb(72.156863%,76.470588%,82.745098%);fill-opacity:1;" d="M 6.214844 20.121094 C 6.214844 20.144531 6.214844 20.167969 6.214844 20.1875 C 6.121094 20.1875 6.03125 20.1875 5.9375 20.1875 C 5.957031 20.320312 5.933594 20.433594 5.867188 20.53125 C 5.867188 20.417969 5.867188 20.304688 5.867188 20.1875 C 5.964844 20.125 6.082031 20.101562 6.214844 20.121094 Z M 6.214844 20.121094 "/>
</g>
<mask id="mask44">
  <g filter="url(#alpha)">
<rect x="0" y="0" width="20" height="22" style="fill:rgb(0%,0%,0%);fill-opacity:0.807843;stroke:none;"/>
  </g>
</mask>
<clipPath id="clip45">
  <rect x="0" y="0" width="20" height="22"/>
</clipPath>
<g id="surface137" clip-path="url(#clip45)">
<path style=" stroke:none;fill-rule:evenodd;fill:rgb(38.039216%,44.313725%,58.823529%);fill-opacity:1;" d="M 6.492188 20.054688 C 6.652344 20.332031 6.664062 20.628906 6.527344 20.941406 C 6.457031 21 6.375 21.019531 6.285156 21.007812 C 6.238281 20.738281 6.214844 20.464844 6.214844 20.1875 C 6.214844 20.167969 6.214844 20.144531 6.214844 20.121094 C 6.328125 20.34375 6.398438 20.59375 6.421875 20.871094 C 6.492188 20.601562 6.515625 20.328125 6.492188 20.054688 Z M 6.492188 20.054688 "/>
</g>
<mask id="mask45">
  <g filter="url(#alpha)">
<rect x="0" y="0" width="20" height="22" style="fill:rgb(0%,0%,0%);fill-opacity:0.941176;stroke:none;"/>
  </g>
</mask>
<clipPath id="clip46">
  <rect x="0" y="0" width="20" height="22"/>
</clipPath>
<g id="surface140" clip-path="url(#clip46)">
<path style=" stroke:none;fill-rule:evenodd;fill:rgb(22.352941%,30.980392%,48.235294%);fill-opacity:1;" d="M 7.742188 20.121094 C 7.84375 20.230469 7.867188 20.34375 7.8125 20.460938 C 7.558594 20.460938 7.304688 20.460938 7.046875 20.460938 C 7.265625 20.394531 7.496094 20.371094 7.742188 20.394531 C 7.742188 20.304688 7.742188 20.210938 7.742188 20.121094 Z M 7.742188 20.121094 "/>
</g>
<mask id="mask46">
  <g filter="url(#alpha)">
<rect x="0" y="0" width="20" height="22" style="fill:rgb(0%,0%,0%);fill-opacity:0.415686;stroke:none;"/>
  </g>
</mask>
<clipPath id="clip47">
  <rect x="0" y="0" width="20" height="22"/>
</clipPath>
<g id="surface143" clip-path="url(#clip47)">
<path style=" stroke:none;fill-rule:evenodd;fill:rgb(51.764706%,58.431373%,69.019608%);fill-opacity:1;" d="M 3.230469 20.394531 C 3.128906 20.460938 3.015625 20.480469 2.882812 20.460938 C 2.902344 20.636719 2.878906 20.796875 2.8125 20.941406 C 2.8125 20.757812 2.8125 20.578125 2.8125 20.394531 C 2.953125 20.394531 3.089844 20.394531 3.230469 20.394531 Z M 3.230469 20.394531 "/>
</g>
<mask id="mask47">
  <g filter="url(#alpha)">
<rect x="0" y="0" width="20" height="22" style="fill:rgb(0%,0%,0%);fill-opacity:0.0980392;stroke:none;"/>
  </g>
</mask>
<clipPath id="clip48">
  <rect x="0" y="0" width="20" height="22"/>
</clipPath>
<g id="surface146" clip-path="url(#clip48)">
<path style=" stroke:none;fill-rule:evenodd;fill:rgb(63.529412%,68.627451%,76.862745%);fill-opacity:1;" d="M 7.046875 20.460938 C 7.304688 20.460938 7.558594 20.460938 7.8125 20.460938 C 7.582031 20.507812 7.347656 20.554688 7.117188 20.597656 C 7.058594 20.574219 7.035156 20.53125 7.046875 20.460938 Z M 7.046875 20.460938 "/>
</g>
<mask id="mask48">
  <g filter="url(#alpha)">
<rect x="0" y="0" width="20" height="22" style="fill:rgb(0%,0%,0%);fill-opacity:0.54902;stroke:none;"/>
  </g>
</mask>
<clipPath id="clip49">
  <rect x="0" y="0" width="20" height="22"/>
</clipPath>
<g id="surface149" clip-path="url(#clip49)">
<path style=" stroke:none;fill-rule:evenodd;fill:rgb(37.647059%,44.705882%,58.823529%);fill-opacity:1;" d="M 9.894531 20.257812 C 9.695312 20.40625 9.464844 20.476562 9.203125 20.460938 C 9.222656 20.636719 9.199219 20.796875 9.132812 20.941406 C 9.113281 20.738281 9.136719 20.546875 9.203125 20.359375 C 9.433594 20.320312 9.664062 20.285156 9.894531 20.257812 Z M 9.894531 20.257812 "/>
</g>
<mask id="mask49">
  <g filter="url(#alpha)">
<rect x="0" y="0" width="20" height="22" style="fill:rgb(0%,0%,0%);fill-opacity:0.380392;stroke:none;"/>
  </g>
</mask>
<clipPath id="clip50">
  <rect x="0" y="0" width="20" height="22"/>
</clipPath>
<g id="surface152" clip-path="url(#clip50)">
<path style=" stroke:none;fill-rule:evenodd;fill:rgb(50.980392%,57.254902%,68.235294%);fill-opacity:1;" d="M 4.546875 20.394531 C 4.4375 20.507812 4.390625 20.644531 4.410156 20.804688 C 4.332031 20.707031 4.320312 20.589844 4.375 20.460938 C 4.421875 20.410156 4.480469 20.386719 4.546875 20.394531 Z M 4.546875 20.394531 "/>
</g>
<mask id="mask50">
  <g filter="url(#alpha)">
<rect x="0" y="0" width="20" height="22" style="fill:rgb(0%,0%,0%);fill-opacity:0.376471;stroke:none;"/>
  </g>
</mask>
<clipPath id="clip51">
  <rect x="0" y="0" width="20" height="22"/>
</clipPath>
<g id="surface155" clip-path="url(#clip51)">
<path style=" stroke:none;fill-rule:evenodd;fill:rgb(50.196078%,56.470588%,67.45098%);fill-opacity:1;" d="M 17.1875 20.394531 C 17.078125 20.507812 17.03125 20.644531 17.046875 20.804688 C 16.972656 20.707031 16.960938 20.589844 17.015625 20.460938 C 17.058594 20.410156 17.117188 20.386719 17.1875 20.394531 Z M 17.1875 20.394531 "/>
</g>
<mask id="mask51">
  <g filter="url(#alpha)">
<rect x="0" y="0" width="20" height="22" style="fill:rgb(0%,0%,0%);fill-opacity:0.662745;stroke:none;"/>
  </g>
</mask>
<clipPath id="clip52">
  <rect x="0" y="0" width="20" height="22"/>
</clipPath>
<g id="surface158" clip-path="url(#clip52)">
<path style=" stroke:none;fill-rule:evenodd;fill:rgb(37.647059%,45.098039%,58.823529%);fill-opacity:1;" d="M 14.617188 20.257812 C 14.664062 20.605469 14.828125 20.675781 15.105469 20.460938 C 15.109375 20.53125 15.085938 20.585938 15.035156 20.632812 C 14.921875 20.667969 14.804688 20.679688 14.6875 20.667969 C 14.550781 20.539062 14.527344 20.402344 14.617188 20.257812 Z M 14.617188 20.257812 "/>
</g>
<mask id="mask52">
  <g filter="url(#alpha)">
<rect x="0" y="0" width="20" height="22" style="fill:rgb(0%,0%,0%);fill-opacity:0.231373;stroke:none;"/>
  </g>
</mask>
<clipPath id="clip53">
  <rect x="0" y="0" width="20" height="22"/>
</clipPath>
<g id="surface161" clip-path="url(#clip53)">
<path style=" stroke:none;fill-rule:evenodd;fill:rgb(52.156863%,58.039216%,69.019608%);fill-opacity:1;" d="M 17.535156 20.734375 C 17.589844 20.671875 17.601562 20.605469 17.570312 20.53125 C 17.496094 20.578125 17.414062 20.613281 17.328125 20.632812 C 17.363281 20.660156 17.386719 20.695312 17.394531 20.734375 C 17.289062 20.714844 17.242188 20.644531 17.257812 20.53125 C 17.394531 20.507812 17.535156 20.484375 17.671875 20.460938 C 17.699219 20.597656 17.652344 20.6875 17.535156 20.734375 Z M 17.535156 20.734375 C 17.488281 20.734375 17.441406 20.734375 17.394531 20.734375 C 17.386719 20.695312 17.363281 20.660156 17.328125 20.632812 C 17.414062 20.613281 17.496094 20.578125 17.570312 20.53125 C 17.601562 20.605469 17.589844 20.671875 17.535156 20.734375 Z M 17.535156 20.734375 "/>
</g>
<mask id="mask53">
  <g filter="url(#alpha)">
<rect x="0" y="0" width="20" height="22" style="fill:rgb(0%,0%,0%);fill-opacity:0.717647;stroke:none;"/>
  </g>
</mask>
<clipPath id="clip54">
  <rect x="0" y="0" width="20" height="22"/>
</clipPath>
<g id="surface164" clip-path="url(#clip54)">
<path style=" stroke:none;fill-rule:evenodd;fill:rgb(45.882353%,52.54902%,64.705882%);fill-opacity:1;" d="M 4.964844 20.667969 C 4.910156 20.789062 4.816406 20.824219 4.6875 20.769531 C 4.628906 20.699219 4.605469 20.621094 4.617188 20.53125 C 4.757812 20.507812 4.894531 20.484375 5.035156 20.460938 C 5.050781 20.550781 5.027344 20.621094 4.964844 20.667969 Z M 4.964844 20.667969 C 4.972656 20.617188 4.960938 20.570312 4.929688 20.53125 C 4.855469 20.578125 4.777344 20.613281 4.6875 20.632812 C 4.761719 20.738281 4.855469 20.75 4.964844 20.667969 Z M 4.964844 20.667969 "/>
</g>
<mask id="mask54">
  <g filter="url(#alpha)">
<rect x="0" y="0" width="20" height="22" style="fill:rgb(0%,0%,0%);fill-opacity:0.941176;stroke:none;"/>
  </g>
</mask>
<clipPath id="clip55">
  <rect x="0" y="0" width="20" height="22"/>
</clipPath>
<g id="surface167" clip-path="url(#clip55)">
<path style=" stroke:none;fill-rule:evenodd;fill:rgb(43.137255%,49.411765%,62.745098%);fill-opacity:1;" d="M 8.644531 20.667969 C 8.734375 21.023438 8.617188 21.09375 8.296875 20.871094 C 8.414062 20.871094 8.53125 20.871094 8.644531 20.871094 C 8.644531 20.804688 8.644531 20.734375 8.644531 20.667969 Z M 8.644531 20.667969 "/>
</g>
<mask id="mask55">
  <g filter="url(#alpha)">
<rect x="0" y="0" width="20" height="22" style="fill:rgb(0%,0%,0%);fill-opacity:0.862745;stroke:none;"/>
  </g>
</mask>
<clipPath id="clip56">
  <rect x="0" y="0" width="20" height="22"/>
</clipPath>
<g id="surface170" clip-path="url(#clip56)">
<path style=" stroke:none;fill-rule:evenodd;fill:rgb(22.745098%,30.196078%,47.843137%);fill-opacity:1;" d="M 13.296875 20.804688 C 13.246094 20.855469 13.175781 20.890625 13.089844 20.90625 C 12.835938 20.941406 12.582031 20.953125 12.328125 20.941406 C 12.320312 20.460938 12.320312 19.992188 12.328125 19.539062 C 12.582031 19.496094 12.835938 19.496094 13.089844 19.539062 C 13.605469 19.789062 13.734375 20.164062 13.472656 20.667969 C 13.421875 20.726562 13.363281 20.773438 13.296875 20.804688 Z M 13.019531 19.847656 C 13.296875 20.019531 13.355469 20.246094 13.195312 20.53125 C 13.007812 20.675781 12.8125 20.699219 12.605469 20.597656 C 12.644531 20.386719 12.644531 20.183594 12.605469 19.984375 C 12.714844 19.875 12.855469 19.832031 13.019531 19.847656 Z M 13.019531 19.847656 "/>
</g>
<mask id="mask56">
  <g filter="url(#alpha)">
<rect x="0" y="0" width="20" height="22" style="fill:rgb(0%,0%,0%);fill-opacity:0.0235294;stroke:none;"/>
  </g>
</mask>
<clipPath id="clip57">
  <rect x="0" y="0" width="20" height="22"/>
</clipPath>
<g id="surface173" clip-path="url(#clip57)">
<path style=" stroke:none;fill-rule:evenodd;fill:rgb(68.235294%,72.941176%,80.392157%);fill-opacity:1;" d="M 12.605469 19.78125 C 12.757812 19.757812 12.898438 19.78125 13.019531 19.847656 C 12.855469 19.832031 12.714844 19.875 12.605469 19.984375 C 12.605469 19.917969 12.605469 19.847656 12.605469 19.78125 Z M 12.605469 19.78125 "/>
</g>
<mask id="mask57">
  <g filter="url(#alpha)">
<rect x="0" y="0" width="20" height="22" style="fill:rgb(0%,0%,0%);fill-opacity:0.407843;stroke:none;"/>
  </g>
</mask>
<clipPath id="clip58">
  <rect x="0" y="0" width="20" height="22"/>
</clipPath>
<g id="surface176" clip-path="url(#clip58)">
<path style=" stroke:none;fill-rule:evenodd;fill:rgb(38.823529%,45.882353%,59.215686%);fill-opacity:1;" d="M 16.632812 20.667969 C 16.703125 20.667969 16.769531 20.667969 16.839844 20.667969 C 16.839844 20.757812 16.839844 20.851562 16.839844 20.941406 C 16.699219 20.953125 16.5625 20.941406 16.421875 20.90625 C 16.386719 20.878906 16.363281 20.847656 16.355469 20.804688 C 16.363281 20.847656 16.386719 20.878906 16.421875 20.90625 C 16.5625 20.941406 16.699219 20.953125 16.839844 20.941406 C 16.839844 20.851562 16.839844 20.757812 16.839844 20.667969 C 16.769531 20.667969 16.703125 20.667969 16.632812 20.667969 Z M 16.632812 20.667969 "/>
</g>
</defs>
<g id="surface1">
<path style=" stroke:none;fill-rule:evenodd;fill:rgb(1.960784%,9.019608%,15.294118%);fill-opacity:1;" d="M 13.992188 1.8125 C 14.089844 1.976562 14.148438 2.15625 14.167969 2.355469 C 14.191406 5.75 14.214844 9.144531 14.234375 12.539062 C 14.496094 12.601562 14.761719 12.625 15.035156 12.605469 C 15.035156 13.722656 15.035156 14.835938 15.035156 15.953125 C 14.351562 15.96875 13.667969 15.945312 12.984375 15.886719 C 12.199219 15.910156 11.449219 16.070312 10.730469 16.363281 C 10.589844 16.363281 10.453125 16.363281 10.3125 16.363281 C 9.46875 16.027344 8.589844 15.867188 7.671875 15.886719 C 7.117188 15.886719 6.5625 15.886719 6.007812 15.886719 C 6.007812 14.792969 6.007812 13.699219 6.007812 12.605469 C 6.277344 12.628906 6.53125 12.605469 6.769531 12.539062 C 6.828125 9.15625 6.863281 5.761719 6.875 2.355469 C 6.894531 2.15625 6.953125 1.976562 7.046875 1.8125 C 7.179688 1.621094 7.363281 1.519531 7.605469 1.503906 C 8.554688 1.492188 9.503906 1.480469 10.453125 1.46875 C 11.449219 1.492188 12.433594 1.492188 13.402344 1.46875 C 13.644531 1.515625 13.839844 1.628906 13.992188 1.8125 Z M 13.992188 1.8125 "/>
<path style=" stroke:none;fill-rule:evenodd;fill:rgb(40%,42.352941%,44.705882%);fill-opacity:1;" d="M 9.828125 1.945312 C 10.292969 1.925781 10.753906 1.949219 11.214844 2.015625 C 10.984375 2.039062 10.753906 2.0625 10.519531 2.082031 C 10.261719 2.082031 10.03125 2.039062 9.828125 1.945312 Z M 9.828125 1.945312 "/>
<use xlink:href="#surface5" mask="url(#mask0)"/>
<path style=" stroke:none;fill-rule:evenodd;fill:rgb(38.823529%,58.431373%,67.843137%);fill-opacity:1;" d="M 12.8125 2.5625 C 11.1875 2.539062 9.570312 2.5625 7.953125 2.628906 C 7.960938 2.589844 7.980469 2.554688 8.019531 2.527344 C 9.628906 2.472656 11.226562 2.484375 12.8125 2.5625 Z M 12.8125 2.5625 "/>
<path style=" stroke:none;fill-rule:evenodd;fill:rgb(59.607843%,86.27451%,96.862745%);fill-opacity:1;" d="M 12.8125 2.5625 C 12.984375 2.578125 13.121094 2.648438 13.230469 2.765625 C 13.226562 2.851562 13.261719 2.921875 13.332031 2.972656 C 13.367188 5.886719 13.378906 8.800781 13.367188 11.71875 C 13.324219 11.871094 13.234375 11.988281 13.089844 12.058594 C 11.449219 12.125 9.804688 12.148438 8.160156 12.128906 C 7.886719 12.078125 7.714844 11.917969 7.640625 11.648438 C 7.59375 8.734375 7.59375 5.820312 7.640625 2.902344 C 7.734375 2.796875 7.839844 2.707031 7.953125 2.628906 C 9.570312 2.5625 11.1875 2.539062 12.8125 2.5625 Z M 12.8125 2.5625 "/>
<path style=" stroke:none;fill-rule:evenodd;fill:rgb(43.921569%,65.882353%,75.294118%);fill-opacity:1;" d="M 13.230469 2.765625 C 13.34375 2.824219 13.425781 2.914062 13.472656 3.039062 C 13.519531 5.886719 13.519531 8.734375 13.472656 11.582031 C 13.453125 11.644531 13.417969 11.6875 13.367188 11.71875 C 13.378906 8.800781 13.367188 5.886719 13.332031 2.972656 C 13.261719 2.921875 13.226562 2.851562 13.230469 2.765625 Z M 13.230469 2.765625 "/>
<path style=" stroke:none;fill-rule:evenodd;fill:rgb(60%,85.882353%,80.392157%);fill-opacity:1;" d="M 8.4375 3.3125 C 9.050781 3.246094 9.675781 3.222656 10.3125 3.246094 C 10.3125 3.722656 10.3125 4.203125 10.3125 4.679688 C 9.6875 4.691406 9.0625 4.679688 8.4375 4.644531 C 8.34375 4.195312 8.34375 3.75 8.4375 3.3125 Z M 8.4375 3.3125 "/>
<path style=" stroke:none;fill-rule:evenodd;fill:rgb(60%,85.098039%,63.529412%);fill-opacity:1;" d="M 8.4375 3.3125 C 9.039062 3.3125 9.640625 3.3125 10.242188 3.3125 C 10.242188 3.722656 10.242188 4.132812 10.242188 4.542969 C 9.640625 4.542969 9.039062 4.542969 8.4375 4.542969 C 8.4375 4.132812 8.4375 3.722656 8.4375 3.3125 Z M 8.4375 3.3125 "/>
<path style=" stroke:none;fill-rule:evenodd;fill:rgb(27.843137%,43.921569%,52.156863%);fill-opacity:1;" d="M 10.519531 3.65625 C 11.148438 3.632812 11.773438 3.65625 12.394531 3.722656 C 12.082031 3.746094 11.769531 3.769531 11.457031 3.792969 C 11.117188 3.792969 10.804688 3.746094 10.519531 3.65625 Z M 10.519531 3.65625 "/>
<path style=" stroke:none;fill-rule:evenodd;fill:rgb(33.333333%,51.764706%,60.392157%);fill-opacity:1;" d="M 10.519531 3.859375 C 11.285156 3.859375 12.046875 3.859375 12.8125 3.859375 C 12.8125 3.929688 12.8125 3.996094 12.8125 4.066406 C 12.023438 4.089844 11.238281 4.066406 10.453125 3.996094 C 10.476562 3.949219 10.5 3.90625 10.519531 3.859375 Z M 10.519531 3.859375 "/>
<path style=" stroke:none;fill-rule:evenodd;fill:rgb(33.333333%,51.764706%,60.392157%);fill-opacity:1;" d="M 10.453125 4.132812 C 11.238281 4.132812 12.027344 4.132812 12.8125 4.132812 C 12.8125 4.203125 12.8125 4.269531 12.8125 4.339844 C 12.046875 4.351562 11.285156 4.339844 10.519531 4.304688 C 10.46875 4.257812 10.445312 4.203125 10.453125 4.132812 Z M 10.453125 4.132812 "/>
<path style=" stroke:none;fill-rule:evenodd;fill:rgb(30.196078%,47.058824%,55.294118%);fill-opacity:1;" d="M 10.519531 4.40625 C 11.285156 4.382812 12.050781 4.40625 12.8125 4.476562 C 12.429688 4.496094 12.046875 4.519531 11.667969 4.542969 C 11.257812 4.542969 10.875 4.496094 10.519531 4.40625 Z M 10.519531 4.40625 "/>
<path style=" stroke:none;fill-rule:evenodd;fill:rgb(31.764706%,49.803922%,58.431373%);fill-opacity:1;" d="M 8.4375 6.25 C 9.089844 6.207031 9.714844 6.253906 10.3125 6.386719 C 9.660156 6.433594 9.035156 6.386719 8.4375 6.25 Z M 8.4375 6.25 "/>
<path style=" stroke:none;fill-rule:evenodd;fill:rgb(24.313725%,39.215686%,47.45098%);fill-opacity:1;" d="M 10.3125 6.523438 C 10.3125 6.570312 10.3125 6.617188 10.3125 6.660156 C 7.257812 6.617188 7.257812 6.570312 10.3125 6.523438 Z M 10.3125 6.523438 "/>
<path style=" stroke:none;fill-rule:evenodd;fill:rgb(24.705882%,40%,47.843137%);fill-opacity:1;" d="M 10.3125 6.796875 C 10.3125 6.84375 10.3125 6.890625 10.3125 6.933594 C 7.257812 6.890625 7.257812 6.84375 10.3125 6.796875 Z M 10.3125 6.796875 "/>
<path style=" stroke:none;fill-rule:evenodd;fill:rgb(51.372549%,75.686275%,85.490196%);fill-opacity:1;" d="M 8.4375 6.25 C 9.035156 6.386719 9.660156 6.433594 10.3125 6.386719 C 10.3125 6.433594 10.3125 6.480469 10.3125 6.523438 C 7.257812 6.570312 7.257812 6.617188 10.3125 6.660156 C 10.3125 6.707031 10.3125 6.753906 10.3125 6.796875 C 7.257812 6.84375 7.257812 6.890625 10.3125 6.933594 C 10.3125 6.980469 10.3125 7.027344 10.3125 7.070312 C 9.523438 7.027344 8.757812 7.074219 8.019531 7.207031 C 7.953125 6.972656 7.929688 6.722656 7.953125 6.457031 C 8.089844 6.457031 8.230469 6.457031 8.367188 6.457031 C 8.351562 6.367188 8.375 6.300781 8.4375 6.25 Z M 8.4375 6.25 "/>
<path style=" stroke:none;fill-rule:evenodd;fill:rgb(30.196078%,47.45098%,55.686275%);fill-opacity:1;" d="M 10.3125 7.070312 C 9.574219 7.207031 8.8125 7.253906 8.019531 7.207031 C 8.757812 7.074219 9.523438 7.027344 10.3125 7.070312 Z M 10.3125 7.070312 "/>
<path style=" stroke:none;fill-rule:evenodd;fill:rgb(78.039216%,91.764706%,80.392157%);fill-opacity:1;" d="M 10.453125 5.5 C 10.453125 6.09375 10.453125 6.683594 10.453125 7.277344 C 11.191406 7.277344 11.933594 7.277344 12.671875 7.277344 C 12.671875 6.683594 12.671875 6.09375 12.671875 5.5 C 12.742188 6.101562 12.765625 6.71875 12.742188 7.34375 C 11.957031 7.34375 11.167969 7.34375 10.382812 7.34375 C 10.359375 6.71875 10.382812 6.101562 10.453125 5.5 Z M 10.453125 5.5 "/>
<path style=" stroke:none;fill-rule:evenodd;fill:rgb(99.607843%,97.647059%,60%);fill-opacity:1;" d="M 10.453125 5.5 C 11.191406 5.5 11.933594 5.5 12.671875 5.5 C 12.671875 6.09375 12.671875 6.683594 12.671875 7.277344 C 11.933594 7.277344 11.191406 7.277344 10.453125 7.277344 C 10.453125 6.683594 10.453125 6.09375 10.453125 5.5 Z M 10.453125 5.5 "/>
<path style=" stroke:none;fill-rule:evenodd;fill:rgb(84.313725%,70.588235%,48.627451%);fill-opacity:1;" d="M 11.078125 8.300781 C 10.503906 8.257812 9.949219 8.324219 9.410156 8.507812 C 9.539062 8.382812 9.703125 8.304688 9.894531 8.265625 C 10.300781 8.210938 10.695312 8.222656 11.078125 8.300781 Z M 11.078125 8.300781 "/>
<path style=" stroke:none;fill-rule:evenodd;fill:rgb(96.470588%,61.176471%,21.568627%);fill-opacity:1;" d="M 11.078125 8.300781 C 11.347656 8.378906 11.589844 8.515625 11.804688 8.710938 C 11.839844 8.847656 11.851562 8.984375 11.839844 9.121094 C 11.589844 9.332031 11.3125 9.492188 11.007812 9.597656 C 10.421875 9.667969 9.863281 9.574219 9.339844 9.324219 C 9.046875 9.015625 9.070312 8.746094 9.410156 8.507812 C 9.949219 8.324219 10.503906 8.257812 11.078125 8.300781 Z M 11.078125 8.300781 "/>
<path style=" stroke:none;fill-rule:evenodd;fill:rgb(69.803922%,80.784314%,79.215686%);fill-opacity:1;" d="M 11.839844 9.121094 C 11.816406 9.25 11.746094 9.351562 11.632812 9.429688 C 11.433594 9.527344 11.226562 9.582031 11.007812 9.597656 C 11.3125 9.492188 11.589844 9.332031 11.839844 9.121094 Z M 11.839844 9.121094 "/>
<use xlink:href="#surface8" mask="url(#mask1)"/>
<path style=" stroke:none;fill-rule:evenodd;fill:rgb(24.705882%,40.392157%,49.019608%);fill-opacity:1;" d="M 11.5625 10.078125 C 10.960938 10.078125 10.359375 10.078125 9.757812 10.078125 C 10.03125 9.988281 10.332031 9.941406 10.660156 9.941406 C 10.988281 9.941406 11.289062 9.988281 11.5625 10.078125 Z M 11.5625 10.078125 "/>
<path style=" stroke:none;fill-rule:evenodd;fill:rgb(49.411765%,73.333333%,83.137255%);fill-opacity:1;" d="M 9.757812 10.078125 C 10.359375 10.078125 10.960938 10.078125 11.5625 10.078125 C 11.585938 10.125 11.609375 10.167969 11.632812 10.214844 C 10.867188 10.214844 10.105469 10.214844 9.339844 10.214844 C 9.480469 10.167969 9.617188 10.125 9.757812 10.078125 Z M 9.757812 10.078125 "/>
<path style=" stroke:none;fill-rule:evenodd;fill:rgb(34.509804%,52.941176%,61.568627%);fill-opacity:1;" d="M 9.339844 10.214844 C 10.105469 10.214844 10.867188 10.214844 11.632812 10.214844 C 11.265625 10.304688 10.871094 10.351562 10.453125 10.351562 C 10.058594 10.328125 9.664062 10.304688 9.269531 10.28125 C 9.28125 10.242188 9.300781 10.21875 9.339844 10.214844 Z M 9.339844 10.214844 "/>
<path style=" stroke:none;fill-rule:evenodd;fill:rgb(34.901961%,53.333333%,62.352941%);fill-opacity:1;" d="M 9.269531 10.488281 C 10.058594 10.464844 10.847656 10.488281 11.632812 10.554688 C 11.238281 10.578125 10.84375 10.601562 10.453125 10.625 C 10.03125 10.625 9.636719 10.578125 9.269531 10.488281 Z M 9.269531 10.488281 "/>
<path style=" stroke:none;fill-rule:evenodd;fill:rgb(26.666667%,41.960784%,50.196078%);fill-opacity:1;" d="M 11.632812 10.828125 C 10.855469 10.851562 10.089844 10.828125 9.339844 10.761719 C 9.710938 10.714844 10.09375 10.691406 10.484375 10.691406 C 10.894531 10.691406 11.277344 10.738281 11.632812 10.828125 Z M 11.632812 10.828125 "/>
<path style=" stroke:none;fill-rule:evenodd;fill:rgb(47.45098%,70.196078%,80%);fill-opacity:1;" d="M 9.339844 10.761719 C 10.089844 10.828125 10.855469 10.851562 11.632812 10.828125 C 10.855469 10.917969 10.070312 10.917969 9.269531 10.828125 C 9.28125 10.789062 9.300781 10.765625 9.339844 10.761719 Z M 9.339844 10.761719 "/>
<path style=" stroke:none;fill-rule:evenodd;fill:rgb(20.784314%,34.509804%,42.352941%);fill-opacity:1;" d="M 13.089844 12.058594 C 13.082031 12.101562 13.058594 12.136719 13.019531 12.160156 C 11.386719 12.21875 9.769531 12.207031 8.160156 12.128906 C 9.804688 12.148438 11.449219 12.125 13.089844 12.058594 Z M 13.089844 12.058594 "/>
<path style=" stroke:none;fill-rule:evenodd;fill:rgb(61.568627%,61.176471%,61.960784%);fill-opacity:1;" d="M 10.3125 12.402344 C 10.835938 12.363281 11.078125 12.589844 11.042969 13.082031 C 10.738281 13.503906 10.414062 13.527344 10.070312 13.152344 C 9.976562 12.835938 10.058594 12.585938 10.3125 12.402344 Z M 10.3125 12.402344 "/>
<use xlink:href="#surface11" mask="url(#mask2)"/>
<path style=" stroke:none;fill-rule:evenodd;fill:rgb(14.117647%,23.921569%,42.745098%);fill-opacity:1;" d="M 5.3125 13.015625 C 5.382812 14.140625 5.40625 15.28125 5.382812 16.433594 C 5.324219 15.351562 5.289062 14.257812 5.277344 13.152344 C 5.199219 13.265625 5.09375 13.332031 4.964844 13.355469 C 5.058594 13.21875 5.171875 13.105469 5.3125 13.015625 Z M 5.3125 13.015625 "/>
<use xlink:href="#surface14" mask="url(#mask3)"/>
<path style=" stroke:none;fill-rule:evenodd;fill:rgb(6.666667%,15.294118%,36.078431%);fill-opacity:1;" d="M 15.730469 13.015625 C 15.890625 13.128906 16.03125 13.265625 16.144531 13.425781 C 16.144531 14.632812 16.144531 15.839844 16.144531 17.046875 C 15.730469 17.046875 15.3125 17.046875 14.894531 17.046875 C 13.964844 17.015625 13.039062 17.070312 12.117188 17.21875 C 11.625 17.34375 11.230469 17.605469 10.9375 18.003906 C 10.789062 18.148438 10.71875 18.328125 10.730469 18.550781 C 10.566406 18.550781 10.40625 18.550781 10.242188 18.550781 C 10.152344 17.960938 9.828125 17.550781 9.269531 17.320312 C 9.171875 17.222656 9.058594 17.140625 8.921875 17.082031 C 8.625 17.046875 8.324219 17.035156 8.019531 17.046875 C 7.394531 17.046875 6.769531 17.046875 6.144531 17.046875 C 5.730469 17.046875 5.3125 17.046875 4.894531 17.046875 C 4.875 15.8125 4.898438 14.582031 4.964844 13.355469 C 5.09375 13.332031 5.199219 13.265625 5.277344 13.152344 C 5.289062 14.257812 5.324219 15.351562 5.382812 16.433594 C 5.636719 16.523438 5.890625 16.523438 6.144531 16.433594 C 7.050781 16.332031 7.953125 16.34375 8.855469 16.464844 C 9.476562 16.585938 10.019531 16.847656 10.484375 17.25 C 10.773438 17.023438 11.085938 16.84375 11.421875 16.703125 C 11.609375 16.710938 11.769531 16.664062 11.910156 16.566406 C 12.097656 16.472656 12.308594 16.425781 12.535156 16.433594 C 13.253906 16.433594 13.96875 16.433594 14.6875 16.433594 C 14.996094 16.5 15.320312 16.523438 15.660156 16.5 C 15.636719 15.328125 15.660156 14.164062 15.730469 13.015625 Z M 15.730469 13.015625 "/>
<use xlink:href="#surface17" mask="url(#mask4)"/>
<use xlink:href="#surface20" mask="url(#mask5)"/>
<use xlink:href="#surface23" mask="url(#mask6)"/>
<path style=" stroke:none;fill-rule:evenodd;fill:rgb(31.372549%,36.470588%,41.176471%);fill-opacity:1;" d="M 10.3125 16.363281 C 10.453125 16.363281 10.589844 16.363281 10.730469 16.363281 C 10.589844 16.546875 10.453125 16.546875 10.3125 16.363281 Z M 10.3125 16.363281 "/>
<use xlink:href="#surface26" mask="url(#mask7)"/>
<use xlink:href="#surface29" mask="url(#mask8)"/>
<path style=" stroke:none;fill-rule:evenodd;fill:rgb(30.980392%,36.862745%,52.941176%);fill-opacity:1;" d="M 8.019531 17.046875 C 8.324219 17.035156 8.625 17.046875 8.921875 17.082031 C 9.058594 17.140625 9.171875 17.222656 9.269531 17.320312 C 8.851562 17.203125 8.433594 17.109375 8.019531 17.046875 Z M 8.019531 17.046875 "/>
<use xlink:href="#surface32" mask="url(#mask9)"/>
<path style=" stroke:none;fill-rule:evenodd;fill:rgb(6.666667%,16.862745%,41.176471%);fill-opacity:1;" d="M 5.519531 17.457031 C 6.496094 17.441406 7.46875 17.464844 8.4375 17.523438 C 8.972656 17.53125 9.367188 17.757812 9.617188 18.207031 C 9.617188 18.300781 9.617188 18.390625 9.617188 18.480469 C 9.109375 18.429688 8.601562 18.40625 8.089844 18.414062 C 7.253906 18.398438 6.421875 18.339844 5.589844 18.242188 C 5.527344 18.195312 5.484375 18.136719 5.453125 18.070312 C 5.441406 17.839844 5.328125 17.703125 5.105469 17.660156 C 5.074219 17.597656 5.027344 17.539062 4.964844 17.492188 C 5.148438 17.457031 5.335938 17.445312 5.519531 17.457031 Z M 5.519531 17.457031 "/>
<path style=" stroke:none;fill-rule:evenodd;fill:rgb(10.980392%,19.607843%,43.529412%);fill-opacity:1;" d="M 15.9375 17.457031 C 15.914062 17.546875 15.890625 17.640625 15.867188 17.730469 C 15.769531 17.929688 15.632812 18.101562 15.453125 18.242188 C 14.296875 18.363281 13.140625 18.445312 11.980469 18.480469 C 11.734375 18.519531 11.527344 18.472656 11.355469 18.34375 C 11.335938 18.257812 11.359375 18.1875 11.421875 18.140625 C 11.539062 18.070312 11.632812 17.980469 11.703125 17.867188 C 11.78125 17.746094 11.898438 17.679688 12.046875 17.660156 C 12.234375 17.667969 12.394531 17.621094 12.535156 17.523438 C 12.636719 17.46875 12.75 17.4375 12.882812 17.421875 C 13.902344 17.371094 14.921875 17.382812 15.9375 17.457031 Z M 15.9375 17.457031 "/>
<use xlink:href="#surface35" mask="url(#mask10)"/>
<use xlink:href="#surface38" mask="url(#mask11)"/>
<path style=" stroke:none;fill-rule:evenodd;fill:rgb(31.372549%,38.431373%,57.254902%);fill-opacity:1;" d="M 5.105469 17.660156 C 5.328125 17.703125 5.441406 17.839844 5.453125 18.070312 C 5.335938 17.9375 5.21875 17.800781 5.105469 17.660156 Z M 5.105469 17.660156 "/>
<use xlink:href="#surface41" mask="url(#mask12)"/>
<use xlink:href="#surface44" mask="url(#mask13)"/>
<use xlink:href="#surface47" mask="url(#mask14)"/>
<use xlink:href="#surface50" mask="url(#mask15)"/>
<use xlink:href="#surface53" mask="url(#mask16)"/>
<path style=" stroke:none;fill-rule:evenodd;fill:rgb(11.372549%,18.823529%,39.215686%);fill-opacity:1;" d="M 3.578125 20.1875 C 3.519531 20.34375 3.40625 20.410156 3.230469 20.394531 C 3.089844 20.394531 2.953125 20.394531 2.8125 20.394531 C 2.8125 20.578125 2.8125 20.757812 2.8125 20.941406 C 2.742188 21.03125 2.671875 21.03125 2.605469 20.941406 C 2.605469 20.484375 2.605469 20.03125 2.605469 19.574219 C 2.890625 19.550781 3.167969 19.585938 3.4375 19.675781 C 3.5625 19.824219 3.605469 19.992188 3.578125 20.1875 Z M 3.296875 19.847656 C 3.304688 19.949219 3.28125 20.039062 3.230469 20.121094 C 2.988281 20.171875 2.875 20.082031 2.882812 19.847656 C 3.019531 19.847656 3.160156 19.847656 3.296875 19.847656 Z M 3.296875 19.847656 "/>
<use xlink:href="#surface56" mask="url(#mask17)"/>
<path style=" stroke:none;fill-rule:evenodd;fill:rgb(0.784314%,12.156863%,33.72549%);fill-opacity:1;" d="M 3.921875 19.574219 C 4.015625 19.761719 4.0625 19.980469 4.0625 20.222656 C 4.039062 20.441406 4.015625 20.65625 3.992188 20.871094 C 3.925781 20.441406 3.902344 20.007812 3.921875 19.574219 Z M 3.921875 19.574219 "/>
<use xlink:href="#surface59" mask="url(#mask18)"/>
<use xlink:href="#surface62" mask="url(#mask19)"/>
<use xlink:href="#surface65" mask="url(#mask20)"/>
<path style=" stroke:none;fill-rule:evenodd;fill:rgb(0.784314%,12.156863%,33.72549%);fill-opacity:1;" d="M 18.296875 19.574219 C 18.34375 19.574219 18.390625 19.574219 18.4375 19.574219 C 18.390625 21.304688 18.34375 21.304688 18.296875 19.574219 Z M 18.296875 19.574219 "/>
<path style=" stroke:none;fill-rule:evenodd;fill:rgb(14.509804%,21.568627%,41.176471%);fill-opacity:1;" d="M 8.644531 20.121094 C 8.554688 20.121094 8.460938 20.121094 8.367188 20.121094 C 8.347656 20.296875 8.371094 20.457031 8.4375 20.597656 C 8.5 20.640625 8.570312 20.664062 8.644531 20.667969 C 8.644531 20.734375 8.644531 20.804688 8.644531 20.871094 C 8.53125 20.871094 8.414062 20.871094 8.296875 20.871094 C 8.253906 20.863281 8.222656 20.84375 8.195312 20.804688 C 8.140625 20.523438 8.0625 20.25 7.953125 19.984375 C 7.96875 19.902344 8.015625 19.855469 8.089844 19.847656 C 8.136719 19.792969 8.195312 19.75 8.265625 19.710938 C 8.351562 19.851562 8.476562 19.921875 8.644531 19.917969 C 8.644531 19.984375 8.644531 20.054688 8.644531 20.121094 Z M 8.644531 20.121094 "/>
<use xlink:href="#surface68" mask="url(#mask21)"/>
<path style=" stroke:none;fill-rule:evenodd;fill:rgb(10.980392%,18.431373%,38.823529%);fill-opacity:1;" d="M 9.828125 19.644531 C 10.074219 19.824219 10.097656 20.03125 9.894531 20.257812 C 9.664062 20.285156 9.433594 20.320312 9.203125 20.359375 C 9.136719 20.546875 9.113281 20.738281 9.132812 20.941406 C 9.0625 21.03125 8.992188 21.03125 8.921875 20.941406 C 8.921875 20.484375 8.921875 20.03125 8.921875 19.574219 C 9.226562 19.566406 9.527344 19.589844 9.828125 19.644531 Z M 9.617188 19.847656 C 9.640625 19.894531 9.664062 19.9375 9.6875 19.984375 C 9.550781 20.097656 9.386719 20.144531 9.203125 20.121094 C 9.203125 20.03125 9.203125 19.9375 9.203125 19.847656 C 9.339844 19.847656 9.480469 19.847656 9.617188 19.847656 Z M 9.617188 19.847656 "/>
<path style=" stroke:none;fill-rule:evenodd;fill:rgb(13.333333%,20.392157%,40%);fill-opacity:1;" d="M 16.5625 19.78125 C 16.597656 19.871094 16.667969 19.941406 16.769531 19.984375 C 16.667969 20.027344 16.597656 20.097656 16.5625 20.1875 C 16.613281 20.34375 16.636719 20.503906 16.632812 20.667969 C 16.671875 20.710938 16.71875 20.757812 16.769531 20.804688 C 16.632812 20.875 16.496094 20.875 16.355469 20.804688 C 16.367188 20.574219 16.355469 20.347656 16.320312 20.121094 C 16.253906 20.082031 16.199219 20.039062 16.144531 19.984375 C 16.238281 19.914062 16.285156 19.824219 16.285156 19.710938 C 16.339844 19.601562 16.433594 19.554688 16.5625 19.574219 C 16.5625 19.644531 16.5625 19.710938 16.5625 19.78125 Z M 16.5625 19.78125 "/>
<use xlink:href="#surface71" mask="url(#mask22)"/>
<use xlink:href="#surface74" mask="url(#mask23)"/>
<use xlink:href="#surface77" mask="url(#mask24)"/>
<use xlink:href="#surface80" mask="url(#mask25)"/>
<path style=" stroke:none;fill-rule:evenodd;fill:rgb(14.117647%,20%,40.392157%);fill-opacity:1;" d="M 10.796875 19.917969 C 10.707031 20.03125 10.613281 20.144531 10.519531 20.257812 C 10.542969 20.476562 10.519531 20.683594 10.453125 20.871094 C 10.382812 20.871094 10.3125 20.871094 10.242188 20.871094 C 10.242188 20.554688 10.242188 20.234375 10.242188 19.917969 C 10.3125 19.917969 10.382812 19.917969 10.453125 19.917969 C 10.578125 19.847656 10.695312 19.847656 10.796875 19.917969 Z M 10.796875 19.917969 "/>
<use xlink:href="#surface83" mask="url(#mask26)"/>
<use xlink:href="#surface86" mask="url(#mask27)"/>
<path style=" stroke:none;fill-rule:evenodd;fill:rgb(6.27451%,16.470588%,37.254902%);fill-opacity:1;" d="M 13.855469 19.574219 C 13.9375 19.558594 14.003906 19.582031 14.0625 19.644531 C 13.953125 19.730469 13.886719 19.707031 13.855469 19.574219 Z M 13.855469 19.574219 "/>
<path style=" stroke:none;fill-rule:evenodd;fill:rgb(4.705882%,14.901961%,35.686275%);fill-opacity:1;" d="M 14.0625 20.871094 C 14.011719 20.933594 13.945312 20.957031 13.855469 20.941406 C 13.855469 20.597656 13.855469 20.257812 13.855469 19.917969 C 13.921875 19.917969 13.992188 19.917969 14.0625 19.917969 C 14.0625 20.234375 14.0625 20.554688 14.0625 20.871094 Z M 14.0625 20.871094 "/>
<path style=" stroke:none;fill-rule:evenodd;fill:rgb(1.960784%,12.941176%,34.509804%);fill-opacity:1;" d="M 15.3125 19.917969 C 15.335938 20.304688 15.3125 20.691406 15.242188 21.078125 C 15.175781 20.972656 15.152344 20.859375 15.171875 20.734375 C 14.96875 20.78125 14.761719 20.804688 14.546875 20.804688 C 14.546875 20.714844 14.59375 20.667969 14.6875 20.667969 C 14.804688 20.679688 14.921875 20.667969 15.035156 20.632812 C 15.085938 20.585938 15.109375 20.53125 15.105469 20.460938 C 15.117188 20.308594 15.140625 20.152344 15.171875 19.984375 C 15.199219 19.925781 15.242188 19.90625 15.3125 19.917969 Z M 15.3125 19.917969 "/>
<use xlink:href="#surface89" mask="url(#mask28)"/>
<use xlink:href="#surface92" mask="url(#mask29)"/>
<path style=" stroke:none;fill-rule:evenodd;fill:rgb(0.784314%,12.156863%,33.72549%);fill-opacity:1;" d="M 15.730469 19.917969 C 15.820312 20.046875 15.867188 20.207031 15.867188 20.394531 C 15.84375 20.554688 15.820312 20.714844 15.796875 20.871094 C 15.730469 20.558594 15.707031 20.238281 15.730469 19.917969 Z M 15.730469 19.917969 "/>
<use xlink:href="#surface95" mask="url(#mask30)"/>
<path style=" stroke:none;fill-rule:evenodd;fill:rgb(19.215686%,26.27451%,44.705882%);fill-opacity:1;" d="M 5.105469 19.917969 C 5.105469 19.9375 5.105469 19.960938 5.105469 19.984375 C 5.007812 19.972656 4.917969 19.984375 4.828125 20.019531 C 4.890625 20.039062 4.9375 20.070312 4.964844 20.121094 C 4.855469 20.101562 4.761719 20.125 4.6875 20.1875 C 4.605469 20.203125 4.535156 20.183594 4.480469 20.121094 C 4.527344 20.050781 4.574219 19.984375 4.617188 19.917969 C 4.78125 19.824219 4.941406 19.824219 5.105469 19.917969 Z M 5.105469 19.917969 "/>
<path style=" stroke:none;fill-rule:evenodd;fill:rgb(16.078431%,22.745098%,42.352941%);fill-opacity:1;" d="M 12.046875 20.1875 C 12.140625 20.324219 12.140625 20.460938 12.046875 20.597656 C 11.914062 20.714844 11.820312 20.691406 11.769531 20.53125 C 11.78125 20.410156 11.757812 20.292969 11.703125 20.1875 C 11.648438 20.144531 11.578125 20.121094 11.492188 20.121094 C 11.386719 20.128906 11.316406 20.175781 11.285156 20.257812 C 11.285156 20.371094 11.285156 20.484375 11.285156 20.597656 C 11.453125 20.683594 11.617188 20.773438 11.769531 20.871094 C 11.144531 21.019531 10.878906 20.769531 10.972656 20.121094 C 11 20.082031 11.035156 20.058594 11.078125 20.054688 C 11.433594 19.847656 11.757812 19.890625 12.046875 20.1875 Z M 11.703125 20.1875 C 11.757812 20.292969 11.78125 20.410156 11.769531 20.53125 C 11.628906 20.683594 11.46875 20.707031 11.285156 20.597656 C 11.285156 20.484375 11.285156 20.371094 11.285156 20.257812 C 11.414062 20.199219 11.554688 20.175781 11.703125 20.1875 Z M 11.703125 20.1875 "/>
<path style=" stroke:none;fill-rule:evenodd;fill:rgb(20.784314%,26.666667%,45.490196%);fill-opacity:1;" d="M 14.546875 19.917969 C 14.761719 19.917969 14.96875 19.9375 15.171875 19.984375 C 15.140625 20.152344 15.117188 20.308594 15.105469 20.460938 C 15.03125 20.203125 14.871094 20.132812 14.617188 20.257812 C 14.527344 20.402344 14.550781 20.539062 14.6875 20.667969 C 14.59375 20.667969 14.546875 20.714844 14.546875 20.804688 C 14.414062 20.800781 14.335938 20.730469 14.304688 20.597656 C 14.25 20.425781 14.261719 20.265625 14.339844 20.121094 C 14.433594 20.074219 14.503906 20.007812 14.546875 19.917969 Z M 14.546875 19.917969 "/>
<use xlink:href="#surface98" mask="url(#mask31)"/>
<path style=" stroke:none;fill-rule:evenodd;fill:rgb(2.352941%,13.333333%,34.509804%);fill-opacity:1;" d="M 6.492188 20.054688 C 6.515625 20.328125 6.492188 20.601562 6.421875 20.871094 C 6.398438 20.59375 6.328125 20.34375 6.214844 20.121094 C 6.082031 20.101562 5.964844 20.125 5.867188 20.1875 C 5.820312 20.40625 5.777344 20.636719 5.730469 20.871094 C 5.636719 20.554688 5.636719 20.234375 5.730469 19.917969 C 5.984375 19.960938 6.242188 20.007812 6.492188 20.054688 Z M 6.492188 20.054688 "/>
<use xlink:href="#surface101" mask="url(#mask32)"/>
<use xlink:href="#surface104" mask="url(#mask33)"/>
<use xlink:href="#surface107" mask="url(#mask34)"/>
<path style=" stroke:none;fill-rule:evenodd;fill:rgb(1.960784%,12.941176%,34.509804%);fill-opacity:1;" d="M 7.742188 20.121094 C 7.742188 20.210938 7.742188 20.304688 7.742188 20.394531 C 7.496094 20.371094 7.265625 20.394531 7.046875 20.460938 C 7 20.535156 6.929688 20.582031 6.839844 20.597656 C 6.828125 20.4375 6.839844 20.277344 6.875 20.121094 C 6.953125 20.003906 7.058594 19.96875 7.1875 20.019531 C 7.082031 20.09375 7.035156 20.195312 7.046875 20.324219 C 7.210938 20.324219 7.371094 20.324219 7.535156 20.324219 C 7.558594 20.160156 7.492188 20.058594 7.328125 20.019531 C 7.480469 19.992188 7.621094 20.027344 7.742188 20.121094 Z M 7.257812 20.121094 C 7.5 20.246094 7.453125 20.28125 7.117188 20.222656 C 7.183594 20.203125 7.226562 20.171875 7.257812 20.121094 Z M 7.257812 20.121094 "/>
<use xlink:href="#surface110" mask="url(#mask35)"/>
<use xlink:href="#surface113" mask="url(#mask36)"/>
<use xlink:href="#surface116" mask="url(#mask37)"/>
<use xlink:href="#surface119" mask="url(#mask38)"/>
<use xlink:href="#surface122" mask="url(#mask39)"/>
<use xlink:href="#surface125" mask="url(#mask40)"/>
<use xlink:href="#surface128" mask="url(#mask41)"/>
<use xlink:href="#surface131" mask="url(#mask42)"/>
<use xlink:href="#surface134" mask="url(#mask43)"/>
<use xlink:href="#surface137" mask="url(#mask44)"/>
<path style=" stroke:none;fill-rule:evenodd;fill:rgb(31.764706%,38.431373%,54.117647%);fill-opacity:1;" d="M 7.742188 20.121094 C 7.621094 20.027344 7.480469 19.992188 7.328125 20.019531 C 7.492188 20.058594 7.558594 20.160156 7.535156 20.324219 C 7.371094 20.324219 7.210938 20.324219 7.046875 20.324219 C 7.035156 20.195312 7.082031 20.09375 7.1875 20.019531 C 7.058594 19.96875 6.953125 20.003906 6.875 20.121094 C 6.839844 20.277344 6.828125 20.4375 6.839844 20.597656 C 6.839844 20.644531 6.839844 20.691406 6.839844 20.734375 C 6.582031 20.089844 6.8125 19.804688 7.535156 19.882812 C 7.667969 19.910156 7.738281 19.992188 7.742188 20.121094 Z M 7.257812 20.121094 C 7.226562 20.171875 7.183594 20.203125 7.117188 20.222656 C 7.453125 20.28125 7.5 20.246094 7.257812 20.121094 Z M 7.257812 20.121094 "/>
<use xlink:href="#surface140" mask="url(#mask45)"/>
<use xlink:href="#surface143" mask="url(#mask46)"/>
<use xlink:href="#surface146" mask="url(#mask47)"/>
<use xlink:href="#surface149" mask="url(#mask48)"/>
<use xlink:href="#surface152" mask="url(#mask49)"/>
<use xlink:href="#surface155" mask="url(#mask50)"/>
<path style=" stroke:none;fill-rule:evenodd;fill:rgb(18.039216%,25.098039%,43.921569%);fill-opacity:1;" d="M 7.046875 20.460938 C 7.035156 20.53125 7.058594 20.574219 7.117188 20.597656 C 7.324219 20.664062 7.53125 20.664062 7.742188 20.597656 C 7.757812 20.726562 7.710938 20.832031 7.605469 20.90625 C 7.417969 20.953125 7.234375 20.953125 7.046875 20.90625 C 6.949219 20.882812 6.878906 20.824219 6.839844 20.734375 C 6.839844 20.691406 6.839844 20.644531 6.839844 20.597656 C 6.929688 20.582031 7 20.535156 7.046875 20.460938 Z M 7.046875 20.460938 "/>
<use xlink:href="#surface158" mask="url(#mask51)"/>
<path style=" stroke:none;fill-rule:evenodd;fill:rgb(30.980392%,36.862745%,52.941176%);fill-opacity:1;" d="M 11.769531 20.53125 C 11.820312 20.691406 11.914062 20.714844 12.046875 20.597656 C 12.027344 20.757812 11.933594 20.851562 11.769531 20.871094 C 11.617188 20.773438 11.453125 20.683594 11.285156 20.597656 C 11.46875 20.707031 11.628906 20.683594 11.769531 20.53125 Z M 11.769531 20.53125 "/>
<path style=" stroke:none;fill-rule:evenodd;fill:rgb(9.411765%,18.039216%,38.431373%);fill-opacity:1;" d="M 17.257812 19.917969 C 17.472656 19.890625 17.667969 19.9375 17.847656 20.054688 C 17.882812 20.324219 17.894531 20.597656 17.882812 20.871094 C 17.628906 20.871094 17.371094 20.871094 17.117188 20.871094 C 17.070312 20.871094 17.046875 20.851562 17.046875 20.804688 C 17.03125 20.644531 17.078125 20.507812 17.1875 20.394531 C 17.261719 20.332031 17.355469 20.308594 17.464844 20.324219 C 17.535156 20.324219 17.605469 20.324219 17.671875 20.324219 C 17.671875 20.257812 17.671875 20.1875 17.671875 20.121094 C 17.539062 20.101562 17.425781 20.125 17.328125 20.1875 C 17.246094 20.203125 17.175781 20.183594 17.117188 20.121094 C 17.167969 20.050781 17.210938 19.984375 17.257812 19.917969 Z M 17.535156 20.734375 C 17.488281 20.734375 17.441406 20.734375 17.394531 20.734375 C 17.386719 20.695312 17.363281 20.660156 17.328125 20.632812 C 17.414062 20.613281 17.496094 20.578125 17.570312 20.53125 C 17.601562 20.605469 17.589844 20.671875 17.535156 20.734375 Z M 17.535156 20.734375 "/>
<use xlink:href="#surface161" mask="url(#mask52)"/>
<path style=" stroke:none;fill-rule:evenodd;fill:rgb(8.627451%,17.647059%,38.039216%);fill-opacity:1;" d="M 5.105469 19.984375 C 5.148438 19.992188 5.183594 20.015625 5.207031 20.054688 C 5.242188 20.324219 5.253906 20.597656 5.242188 20.871094 C 4.988281 20.871094 4.734375 20.871094 4.480469 20.871094 C 4.433594 20.871094 4.410156 20.851562 4.410156 20.804688 C 4.390625 20.644531 4.4375 20.507812 4.546875 20.394531 C 4.636719 20.410156 4.707031 20.386719 4.757812 20.324219 C 4.78125 20.324219 4.804688 20.324219 4.828125 20.324219 C 4.894531 20.324219 4.964844 20.324219 5.035156 20.324219 C 5.050781 20.238281 5.027344 20.167969 4.964844 20.121094 C 4.9375 20.070312 4.890625 20.039062 4.828125 20.019531 C 4.917969 19.984375 5.007812 19.972656 5.105469 19.984375 Z M 4.964844 20.667969 C 4.855469 20.75 4.761719 20.738281 4.6875 20.632812 C 4.777344 20.613281 4.855469 20.578125 4.929688 20.53125 C 4.960938 20.570312 4.972656 20.617188 4.964844 20.667969 Z M 4.964844 20.667969 "/>
<use xlink:href="#surface164" mask="url(#mask53)"/>
<use xlink:href="#surface167" mask="url(#mask54)"/>
<use xlink:href="#surface170" mask="url(#mask55)"/>
<use xlink:href="#surface173" mask="url(#mask56)"/>
<path style=" stroke:none;fill-rule:evenodd;fill:rgb(6.666667%,15.294118%,36.470588%);fill-opacity:1;" d="M 12.605469 19.78125 C 12.605469 19.847656 12.605469 19.917969 12.605469 19.984375 C 12.644531 20.183594 12.644531 20.386719 12.605469 20.597656 C 12.648438 20.683594 12.730469 20.730469 12.847656 20.734375 C 12.964844 20.726562 13.082031 20.703125 13.195312 20.667969 C 13.265625 20.691406 13.300781 20.734375 13.296875 20.804688 C 13 20.84375 12.699219 20.867188 12.394531 20.871094 C 12.394531 20.441406 12.394531 20.007812 12.394531 19.574219 C 12.636719 19.554688 12.867188 19.585938 13.089844 19.675781 C 12.914062 19.691406 12.753906 19.722656 12.605469 19.78125 Z M 12.605469 19.78125 "/>
<use xlink:href="#surface176" mask="url(#mask57)"/>
<path style=" stroke:none;fill-rule:evenodd;fill:rgb(29.803922%,36.470588%,52.941176%);fill-opacity:1;" d="M 15.3125 19.917969 C 15.382812 20.246094 15.402344 20.585938 15.382812 20.941406 C 15.296875 21.351562 15.042969 21.5 14.617188 21.386719 C 14.519531 21.359375 14.449219 21.300781 14.410156 21.214844 C 14.324219 21.082031 14.371094 20.992188 14.546875 20.941406 C 14.742188 21.117188 14.925781 21.117188 15.105469 20.941406 C 15.003906 20.871094 14.902344 20.871094 14.792969 20.941406 C 14.691406 20.921875 14.609375 20.875 14.546875 20.804688 C 14.761719 20.804688 14.96875 20.78125 15.171875 20.734375 C 15.152344 20.859375 15.175781 20.972656 15.242188 21.078125 C 15.3125 20.691406 15.335938 20.304688 15.3125 19.917969 Z M 15.3125 19.917969 "/>
<path style=" stroke:none;fill-rule:evenodd;fill:rgb(5.490196%,15.294118%,36.078431%);fill-opacity:1;" d="M 14.410156 21.214844 C 14.40625 21.144531 14.441406 21.101562 14.515625 21.078125 C 14.710938 21.113281 14.910156 21.160156 15.105469 21.214844 C 14.871094 21.292969 14.640625 21.292969 14.410156 21.214844 Z M 14.410156 21.214844 "/>
</g>
</svg>
